<svg width="104" height="104" viewBox="0 0 104 104" fill="none" xmlns="http://www.w3.org/2000/svg">
<path d="M45.3989 75.1625C48.1784 75.1625 50.3789 77.3629 50.3789 80.1424C50.3789 82.9219 48.1784 85.1224 45.3989 85.1224C42.6194 85.1224 40.419 82.9219 40.419 80.1424C40.419 77.3629 42.6194 75.1625 45.3989 75.1625ZM50.1472 80.1424C50.1472 77.4787 48.0626 75.3941 45.3989 75.3941C42.7352 75.3941 40.5348 77.4787 40.5348 80.1424C40.5348 82.8061 42.7352 85.0066 45.3989 85.0066C48.0626 85.0066 50.1472 82.8061 50.1472 80.1424Z" fill="#EBEBEB"/>
<path d="M45.3989 75.3941C48.0626 75.3941 50.1472 77.4787 50.1472 80.1424C50.1472 82.8061 48.0626 85.0066 45.3989 85.0066C42.7352 85.0066 40.5348 82.8061 40.5348 80.1424C40.5348 77.4787 42.7352 75.3941 45.3989 75.3941ZM49.2207 80.1424C49.2207 78.0578 47.4835 76.3206 45.3989 76.3206C43.3143 76.3206 41.5771 78.0578 41.5771 80.1424C41.5771 82.2271 43.3143 83.9643 45.3989 83.9643C47.4835 83.9643 49.2207 82.2271 49.2207 80.1424Z" fill="#EBEBEB"/>
<path d="M45.3989 76.2048C47.4835 76.2048 49.2207 77.942 49.2207 80.0266C49.2207 82.1112 47.4835 83.8484 45.3989 83.8484C43.3143 83.8484 41.5771 82.1112 41.5771 80.0266C41.4613 77.942 43.1985 76.2048 45.3989 76.2048ZM49.1049 80.1424C49.1049 78.0578 47.4835 76.4364 45.3989 76.4364C43.3143 76.4364 41.6929 78.0578 41.6929 80.1424C41.6929 82.2271 43.3143 83.8484 45.3989 83.8484C47.4835 83.8484 49.1049 82.2271 49.1049 80.1424Z" fill="#EBEBEB"/>
<path d="M45.3989 75.9732C47.7152 75.9732 49.5682 77.8262 49.5682 80.1425C49.5682 82.4587 47.7152 84.4275 45.3989 84.4275C43.0827 84.4275 41.1139 82.5745 41.1139 80.1425C41.1139 77.8262 43.0827 75.9732 45.3989 75.9732ZM49.4523 80.1425C49.4523 77.942 47.5993 76.089 45.3989 76.089C43.1985 76.089 41.3455 77.942 41.3455 80.1425C41.3455 82.3429 43.1985 84.1959 45.3989 84.1959C47.5993 84.1959 49.4523 82.3429 49.4523 80.1425Z" fill="#EBEBEB"/>
<path d="M45.3989 76.0891C47.5993 76.0891 49.4523 77.9421 49.4523 80.1425C49.4523 82.3429 47.5993 84.1959 45.3989 84.1959C43.1985 84.1959 41.3455 82.3429 41.3455 80.1425C41.2297 77.8262 43.0827 76.0891 45.3989 76.0891ZM48.6417 80.1425C48.6417 78.2895 47.1361 76.8997 45.3989 76.8997C43.5459 76.8997 42.1562 78.4053 42.1562 80.1425C42.1562 81.9955 43.6617 83.3852 45.3989 83.3852C47.1361 83.3852 48.6417 81.9955 48.6417 80.1425Z" fill="#EBEBEB"/>
<path d="M45.3989 76.7839C47.2519 76.7839 48.6417 78.2895 48.6417 80.0267C48.6417 81.8797 47.1361 83.2695 45.3989 83.2695C43.5459 83.2695 42.1562 81.7639 42.1562 80.0267C42.0403 78.2895 43.5459 76.7839 45.3989 76.7839ZM48.5258 80.1425C48.5258 78.4053 47.1361 77.0156 45.3989 77.0156C43.6617 77.0156 42.272 78.4053 42.272 80.1425C42.272 81.8797 43.6617 83.2695 45.3989 83.2695C47.1361 83.2695 48.5258 81.8797 48.5258 80.1425Z" fill="#EBEBEB"/>
<path d="M99.4833 32.5433C104 40.6502 103.768 50.9576 97.8619 58.8329C89.8709 69.4876 74.8153 71.5723 64.2764 63.697L64.508 63.3496C65.2029 63.697 66.0136 64.0444 66.7085 64.3919C76.7841 70.4141 89.9867 67.9821 97.1671 58.3696C102.958 50.6101 103.189 40.4186 98.5568 32.6592L99.4833 32.5433Z" fill="#EBEBEB"/>
<path d="M98.441 32.5433C103.074 40.4186 102.842 50.6101 97.0513 58.2538C89.8709 67.8663 76.6683 70.2983 66.5926 64.2761C76.4367 68.3295 88.1337 65.3184 94.8508 56.4008C100.178 49.3362 100.989 40.4186 97.7461 32.775L98.441 32.5433Z" fill="#EBEBEB"/>
<path d="M97.862 32.775C100.989 40.3028 100.178 49.3362 94.9667 56.4008C88.2495 65.3184 76.5525 68.3295 66.7084 64.2761C66.0135 63.9286 65.3187 63.4654 64.7396 62.8863C63.6973 62.1914 62.655 61.4966 61.6127 60.9175L61.8443 60.57C72.1516 68.2137 86.6282 66.1291 94.3876 55.9375C99.5991 48.9888 100.294 39.9554 97.0513 32.5433H97.9778C97.7462 32.5433 97.7461 32.6591 97.862 32.775Z" fill="#EBEBEB"/>
<path d="M64.6238 62.8864C65.3187 63.3496 66.0135 63.8129 66.5926 64.2761C65.7819 63.9287 65.087 63.5812 64.3922 63.2338L64.6238 62.8864Z" fill="#EBEBEB"/>
<path d="M64.6238 62.8863L64.3922 63.2338C63.3499 62.6547 62.3075 61.9598 61.2652 61.2649L61.4969 61.0333C62.5392 61.4966 63.5815 62.1915 64.6238 62.8863Z" fill="#EBEBEB"/>
<path d="M64.3922 63.2338L64.1605 63.5812C53.8532 55.9376 39.3767 58.0222 31.6172 68.2137C27.448 73.7728 26.1741 80.7215 27.448 86.9754C27.2164 86.5122 26.9847 85.9331 26.7531 85.4699C25.7108 79.3318 27.1006 72.9621 30.9224 67.7505C37.4079 58.8329 49.684 55.7059 59.7597 60.2226C60.2229 60.5701 60.6862 60.9175 61.1494 61.265C62.3075 61.9598 63.3499 62.6547 64.3922 63.2338Z" fill="#EBEBEB"/>
<path d="M61.7285 60.57L61.4969 60.9175C60.9178 60.6859 60.4545 60.3384 59.8755 60.1068C49.5682 53.0422 35.3233 55.8217 28.7219 65.7816C24.9001 71.6881 24.4369 78.9843 26.8689 85.354C27.448 88.5968 28.6061 91.7237 30.4591 94.5032C23.0471 86.6279 21.889 74.236 28.1429 65.2026C35.5549 54.6636 51.0737 52.2315 61.7285 60.57Z" fill="#EBEBEB"/>
<path d="M61.4969 60.9175L61.2652 61.1491C60.802 60.8017 60.3387 60.4542 59.8755 60.1068C60.4545 60.3384 60.9178 60.6859 61.4969 60.9175Z" fill="#EBEBEB"/>
<path d="M59.8755 60.1068C49.7998 55.706 37.5237 58.7171 31.0382 67.6347C27.2164 72.8463 25.9424 79.3318 26.8689 85.354C24.4369 78.9843 24.9001 71.5723 28.7219 65.7817C35.3233 55.9376 49.5682 53.0423 59.8755 60.1068Z" fill="#EBEBEB"/>
<path d="M37.0605 97.2828C36.5972 97.8618 36.0181 98.3251 35.5549 98.7883C33.9335 97.8618 32.5438 96.7037 31.2698 95.4298C30.4591 94.1558 29.6484 92.8819 29.0694 91.6079C28.3745 90.1024 27.9113 88.5968 27.5638 86.9754C29.4168 91.1447 32.6596 94.8507 37.0605 97.2828Z" fill="#EBEBEB"/>
<path d="M36.2498 100.757C35.9023 100.526 35.5549 100.41 35.2075 100.178C33.2386 98.5567 31.7331 96.7037 30.4591 94.7349C30.6908 94.9665 30.9224 95.3139 31.2698 95.5456C32.5438 97.3986 34.281 99.2516 36.2498 100.757Z" fill="#EBEBEB"/>
<path d="M31.154 95.4298C30.9224 95.1981 30.5749 94.8507 30.3433 94.6191C28.4903 91.8396 27.3322 88.5968 26.7531 85.4698C26.9848 86.0489 27.1006 86.5122 27.448 86.9754C27.7954 88.5968 28.2587 90.1024 28.9536 91.6079C29.6484 92.9977 30.3433 94.2716 31.154 95.4298Z" fill="#EBEBEB"/>
<path d="M42.2709 101.22C35.0905 100.178 28.9524 95.0823 26.4046 87.9019C26.1729 87.207 25.9413 86.628 25.7097 85.9331C27.7943 94.2716 34.2798 100.526 42.2709 101.799C42.9657 101.915 53.6205 103.421 59.9902 95.3139C64.9701 89.06 63.6962 81.5322 63.4646 80.3741C63.4646 81.1848 63.5804 82.6903 63.3487 84.4275C63.3487 84.6592 63.3487 84.8908 63.3487 85.1224C63.0013 88.9442 61.6115 92.3028 59.5269 94.9665C55.4735 99.9465 48.4089 102.147 42.2709 101.22Z" fill="#EBEBEB"/>
<path d="M26.4057 87.9019C29.0694 95.0823 35.0916 100.178 42.272 101.22C48.4101 102.147 55.4746 99.9465 59.4122 94.9665C61.6127 92.3028 63.0024 88.9442 63.2341 85.1224C63.2341 84.8908 63.2341 84.6592 63.2341 84.4276C62.8866 86.7438 62.0759 89.6391 59.9913 92.187C53.9691 100.062 43.4301 98.7883 42.272 98.6725C34.86 97.3986 28.6061 92.4186 25.595 85.8173C25.9424 86.628 26.1741 87.3229 26.4057 87.9019Z" fill="#EBEBEB"/>
<path d="M25.7108 86.0489C28.7219 92.5345 34.86 97.6302 42.3878 98.9042C43.546 99.1358 54.2007 100.294 60.1071 92.4186C62.0759 89.7549 63.0024 86.9754 63.3499 84.6592C63.3499 83.8485 63.3499 83.0378 63.4657 82.2271V82.3429C62.5392 92.8819 53.1584 99.9465 42.5036 98.2093C35.2074 97.0512 29.1852 91.9554 26.2899 85.5857L25.7108 86.0489Z" fill="#EBEBEB"/>
<path d="M63.3499 82.1113C63.3499 82.9219 63.3499 83.7326 63.2341 84.5433C63.4657 82.6903 63.4657 81.3006 63.3499 80.4899C63.4657 81.0689 63.4657 81.5322 63.3499 82.1113Z" fill="#EBEBEB"/>
<path d="M97.7461 27.216C96.9354 25.7105 96.1248 24.3207 95.0824 22.931C92.7662 19.4566 89.9867 16.3296 86.8598 13.5501C86.2807 12.971 85.5858 12.392 85.0068 11.9287C83.7328 10.8864 82.3431 9.8441 80.9533 8.91759C80.2584 8.45434 79.5636 7.99109 78.8687 7.52784C77.479 6.71715 75.9734 5.90646 74.4678 5.09577C67.6349 1.85301 59.9913 0 51.8844 0C23.1629 0.115813 -0.115382 23.3942 0.000430269 52.1158C0.000430269 53.853 0.116239 55.706 0.232052 57.4432C0.463676 60.1069 0.926932 62.6548 1.62181 65.0869C2.08506 66.7082 2.5483 68.3296 3.12736 69.951C3.70642 71.5724 4.4013 73.078 5.09618 74.5835C6.60174 77.5947 8.33893 80.49 10.3077 83.1537C11.8133 85.1225 13.4347 87.0913 15.1719 88.8285C18.762 92.3029 22.6997 95.314 27.2164 97.7461C30.1117 99.3675 33.2386 100.641 36.5972 101.684C38.2185 102.147 39.8399 102.61 41.5771 102.958C44.9356 103.653 48.5258 104 52.0002 104C59.1806 104 66.0135 102.494 72.2674 99.8307C73.7729 99.1359 75.2785 98.441 76.7841 97.6303C78.2896 96.8196 79.6794 96.0089 81.0691 94.9666C84.5435 92.6503 87.6705 89.8708 90.45 86.7439C91.029 86.1648 91.6081 85.4699 92.0713 84.8909C93.1136 83.6169 94.1559 82.2272 95.0824 80.8374C95.5457 80.1425 96.0089 79.4477 96.4722 78.7528C97.2829 77.363 98.0936 75.8575 98.9042 74.3519C102.147 67.5189 104 59.8753 104 51.7684C104 44.588 102.494 37.755 99.8307 31.5011C99.2517 30.2272 98.5568 28.7216 97.7461 27.216ZM52.0002 3.47439C67.1716 3.47439 80.7217 10.4232 89.6392 21.3096C89.2918 22.0045 88.5969 22.5835 87.7863 22.5835L16.5616 22.931C15.6351 22.931 14.7086 22.2361 14.477 21.3096C23.3945 10.4232 36.8288 3.47439 52.0002 3.47439ZM100.294 66.245C100.294 66.245 100.294 66.1292 100.41 66.0134C100.294 66.1292 100.294 66.1292 100.294 66.245ZM52.116 100.641C25.2475 100.641 3.47481 78.9844 3.35899 52.1158C3.35899 43.8931 5.3278 36.2494 8.91798 29.4165C10.6552 27.1002 13.4347 25.7105 16.33 25.7105L47.9468 25.5947H48.0626C48.8733 25.7105 49.3365 25.7105 49.684 25.9421C50.1472 26.1737 50.4947 26.7528 50.4947 27.3318L50.3788 53.0423C50.3788 54.8953 48.9891 56.5167 47.1361 56.7483C45.1673 57.0958 50.7263 56.7483 50.9579 56.7483H52.3476C52.5793 56.7483 55.243 57.6748 54.8955 57.3274C54.7797 57.2116 54.7797 57.2116 54.6639 57.0958C54.8955 57.2116 55.1271 57.2116 55.3588 57.3274C56.5169 57.6748 57.3276 58.0223 57.3276 57.9065C57.4434 57.6748 54.2006 56.6325 53.5058 54.0846C53.39 53.5056 53.39 53.0423 53.39 52.8107C53.39 45.2829 53.5058 37.6392 53.5058 30.1113C53.5058 29.5323 53.5058 27.6793 54.8955 26.637C55.0113 26.5212 55.4746 26.1737 56.9801 25.8263C58.2541 25.5947 59.1806 25.4788 59.9913 25.4788H86.5123C87.6704 25.4788 89.9867 25.7105 92.1871 27.216C93.1136 27.9109 94.3876 28.9532 95.8931 31.8485C98.5568 37.1759 98.5568 41.9243 98.6726 41.9243C98.6726 41.9243 98.6726 40.5345 98.5568 38.4499C99.8308 42.735 100.41 47.1359 100.41 51.7684C100.757 78.8686 78.9845 100.641 52.116 100.641ZM102.263 53.6214C102.263 53.0423 102.263 52.5791 102.263 52C102.379 52.4633 102.263 53.0423 102.263 53.6214Z" fill="#EBEBEB"/>
<path d="M31.733 93.1137C27.9112 89.6393 27.1005 84.5435 26.9847 82.9221V89.176C26.9847 89.176 35.5548 96.4722 31.733 93.1137Z" fill="#EBEBEB"/>
</svg>