<svg width="208" height="208" viewBox="0 0 208 208" fill="none" xmlns="http://www.w3.org/2000/svg">
<g clip-path="url(#clip0)">
<path d="M99.7 126.7C101.4 126.7 102.7 128 102.7 129.7C102.7 131.4 101.4 132.7 99.7 132.7C98 132.7 96.7 131.3 96.7 129.7C96.7 128.1 98.1 126.7 99.7 126.7ZM102.7 129.7C102.7 128.1 101.4 126.8 99.8 126.8C98.2 126.8 96.9 128.1 96.9 129.7C96.9 131.3 98.2 132.6 99.8 132.6C101.4 132.6 102.7 131.3 102.7 129.7Z" fill="#EBEBEB"/>
<path d="M99.7 126.8C101.3 126.8 102.6 128.1 102.6 129.7C102.6 131.3 101.3 132.6 99.7 132.6C98.1 132.6 96.8 131.3 96.8 129.7C96.8 128.1 98.1 126.8 99.7 126.8ZM102.1 129.7C102.1 128.4 101 127.3 99.7 127.3C98.4 127.3 97.3 128.4 97.3 129.7C97.3 131 98.4 132.1 99.7 132.1C101 132.1 102.1 131 102.1 129.7Z" fill="#EBEBEB"/>
<path d="M99.7 127.3C101 127.3 102.1 128.4 102.1 129.7C102.1 131 101 132.1 99.7 132.1C98.4 132.1 97.3 131 97.3 129.7C97.4 128.4 98.4 127.3 99.7 127.3ZM102 129.7C102 128.4 101 127.4 99.7 127.4C98.4 127.4 97.4 128.4 97.4 129.7C97.4 131 98.4 132 99.7 132C101 132 102 131 102 129.7Z" fill="#EBEBEB"/>
<path d="M99.7 127.1C101.1 127.1 102.3 128.2 102.3 129.7C102.3 131.1 101.2 132.3 99.7 132.3C98.2 132.3 97.1 131.1 97.1 129.7C97.1 128.3 98.3 127.1 99.7 127.1ZM102.2 129.7C102.2 128.3 101.1 127.2 99.7 127.2C98.3 127.2 97.2 128.3 97.2 129.7C97.2 131.1 98.3 132.2 99.7 132.2C101.1 132.2 102.2 131.1 102.2 129.7Z" fill="#EBEBEB"/>
<path d="M99.7 127.2C101.1 127.2 102.2 128.3 102.2 129.7C102.2 131.1 101.1 132.2 99.7 132.2C98.3 132.2 97.2 131.1 97.2 129.7C97.2 128.3 98.4 127.2 99.7 127.2ZM101.7 129.7C101.7 128.6 100.8 127.7 99.7 127.7C98.6 127.7 97.7 128.6 97.7 129.7C97.7 130.8 98.6 131.7 99.7 131.7C100.8 131.7 101.7 130.8 101.7 129.7Z" fill="#EBEBEB"/>
<path d="M99.7 127.7C100.8 127.7 101.7 128.6 101.7 129.7C101.7 130.8 100.8 131.7 99.7 131.7C98.6 131.7 97.7 130.8 97.7 129.7C97.7 128.6 98.6 127.7 99.7 127.7ZM101.7 129.7C101.7 128.6 100.8 127.8 99.8 127.8C98.7 127.8 97.9 128.7 97.9 129.7C97.9 130.8 98.8 131.6 99.8 131.6C100.8 131.6 101.7 130.8 101.7 129.7Z" fill="#EBEBEB"/>
<path d="M175.4 145.4L103.9 21.5V21.4L175.5 145.4H32.4H175.4Z" fill="#EBEBEB"/>
<path d="M103.9 23.6L34.2 144.3L103.8 23.5L103.9 23.6Z" fill="#EBEBEB"/>
<path d="M103.9 21.4V21.5L32.4 145.4H32.3L103.9 21.4Z" fill="#EBEBEB"/>
<path d="M173.6 144.3H34.2H173.5L103.9 23.6V23.5L173.6 144.3Z" fill="#EBEBEB"/>
<path d="M103.9 21.5L175.4 145.4H32.4L103.9 21.5ZM34.2 144.3H173.6L103.9 23.5V23.6V23.5L34.2 144.3Z" fill="#EBEBEB"/>
<path d="M71 79.8V145.5H136.7V79.8H71ZM135.6 144.4H72.1V80.8H135.7V144.4H135.6Z" fill="#EBEBEB"/>
<path d="M103.8 18.6C56.6 18.7 18.5 57 18.6 104.1C18.7 151.2 57 189.4 104.1 189.3C151.2 189.2 189.4 150.9 189.3 103.8C189.2 56.6 150.9 18.5 103.8 18.6ZM104.1 186.4C58.5 186.5 21.5 149.6 21.4 104.1C21.3 58.5 58.2 21.5 103.7 21.4C149.3 21.3 186.3 58.2 186.4 103.7C186.5 149.3 149.7 186.3 104.1 186.4Z" fill="#EBEBEB"/>
<path d="M103.8 18.6C56.6 18.7 18.5 57 18.6 104.1C18.7 151.2 57 189.4 104.1 189.3C151.2 189.2 189.4 150.9 189.3 103.8C189.2 56.6 150.9 18.5 103.8 18.6ZM104.1 186.4C58.5 186.5 21.5 149.6 21.4 104.1C21.3 58.5 58.2 21.5 103.7 21.4C149.3 21.3 186.3 58.2 186.4 103.7C186.5 149.3 149.7 186.3 104.1 186.4Z" fill="#EBEBEB"/>
<path d="M207.9 103.7C207.8 46.3 161.1 -0.100022 103.7 -2.1771e-05C46.3 0.0999782 -0.100022 46.7 -2.1771e-05 104.1C0.0999782 161.5 46.7 208 104.1 207.9C161.5 207.8 208 161.1 207.9 103.7ZM104.1 206.2C47.6 206.4 1.69998 160.6 1.59998 104.1C1.49998 47.6 47.2 1.69998 103.7 1.59998C160.2 1.49998 206.1 47.2 206.2 103.7C206.4 160.2 160.6 206.1 104.1 206.2Z" fill="#EBEBEB"/>
<path d="M103.8 80.9C86.3 80.9 72.1 95.2 72.1 112.7C72.1 130.2 86.4 144.4 103.9 144.4C121.4 144.4 135.6 130.1 135.6 112.6C135.5 95 121.3 80.8 103.8 80.9ZM103.9 143.2C87 143.2 73.2 129.5 73.2 112.6C73.2 95.7 86.8 82 103.8 81.9C120.7 81.9 134.5 95.6 134.5 112.5C134.5 129.4 120.8 143.2 103.9 143.2Z" fill="#EBEBEB"/>
<path d="M103.8 80.9C86.3 80.9 72.1 95.2 72.1 112.7C72.1 130.2 86.4 144.4 103.9 144.4C121.4 144.4 135.6 130.1 135.6 112.6C135.6 95.1 121.3 80.8 103.8 80.9ZM103.9 143.2C87 143.2 73.2 129.5 73.2 112.6C73.2 95.7 86.8 82 103.8 81.9C120.7 81.9 134.5 95.6 134.5 112.5C134.5 129.4 120.8 143.2 103.9 143.2Z" fill="#EBEBEB"/>
<path d="M103.8 81.9C86.9 81.9 73.2 95.7 73.2 112.6C73.2 129.5 87 143.2 103.9 143.2C120.8 143.2 134.5 129.4 134.5 112.5C134.5 95.6 120.7 81.9 103.8 81.9ZM103.9 142.2C87.5 142.2 74.2 129 74.2 112.6C74.2 96.2 87.4 82.9 103.8 82.9C120.2 82.9 133.5 96.1 133.5 112.5C133.5 128.9 120.3 142.2 103.9 142.2Z" fill="#EBEBEB"/>
<path d="M130.7 100.4C129.8 98.7 129 98 128.5 97.6C127.2 96.7 125.7 96.5 125 96.5L82.1 96.6C79.9 96.6 77.8 97.9 76.9 99.9C76.5 100.9 77.1 96.2 77.1 95.9C77.1 95.6 78.5 93.4 78.4 93.8C78.3 94.6 79 95.3 79.9 95.3L127.4 95.2C128.3 95.2 129 94.3 128.8 93.4C128.8 93.3 128.8 93.3 128.8 93.3C128.9 93.3 130.1 95.6 130.2 95.9C132.3 100.1 132.5 106.6 132.4 106.6C132.3 106.5 132.4 103.6 130.7 100.4Z" fill="#EBEBEB"/>
<path d="M127.6 95.8L80.2 96C79.9 96 79.6 95.7 79.6 95.4C79.6 95.1 80.8 92.9 80.8 93.2C80.7 94 81.4 94.7 82.1 94.7L125.5 94.5C126.4 94.5 127 93.6 126.7 92.6C126.5 91.8 128 94.8 128 95.1C128.1 95.6 127.9 95.8 127.6 95.8Z" fill="#EBEBEB"/>
<path d="M132.7 100.6C135.5 105.5 135.3 111.8 131.7 116.6C126.8 123.1 117.7 124.4 111.2 119.5L111.4 119.3C111.9 119.5 112.3 119.7 112.8 119.9C118.9 123.6 127 122.1 131.4 116.2C134.9 111.5 135.1 105.3 132.3 100.5L132.7 100.6Z" fill="#EBEBEB"/>
<path d="M132.1 100.6C134.9 105.4 134.8 111.6 131.2 116.3C126.8 122.2 118.8 123.7 112.6 120C118.6 122.4 125.8 120.6 129.8 115.2C133 110.9 133.5 105.4 131.6 100.8L132.1 100.6Z" fill="#EBEBEB"/>
<path d="M131.7 100.8C133.6 105.4 133.1 110.9 129.9 115.2C125.8 120.6 118.7 122.4 112.7 120C112.3 119.8 111.9 119.5 111.5 119.2C110.9 118.7 110.2 118.3 109.6 118L109.8 117.8C116.1 122.5 124.9 121.2 129.6 115C132.8 110.7 133.2 105.3 131.2 100.7H131.7C131.7 100.7 131.7 100.8 131.7 100.8Z" fill="#EBEBEB"/>
<path d="M111.5 119.2C111.9 119.5 112.3 119.8 112.7 120C112.2 119.8 111.8 119.6 111.3 119.4L111.5 119.2Z" fill="#EBEBEB"/>
<path d="M111.5 119.2L111.4 119.4C110.7 119 110.1 118.6 109.5 118.2L109.6 118C110.2 118.3 110.9 118.7 111.5 119.2Z" fill="#EBEBEB"/>
<path d="M111.3 119.4L111.1 119.6C104.8 114.9 96 116.2 91.3 122.4C88.8 125.8 88 130 88.8 133.9C88.6 133.6 88.5 133.3 88.4 133C87.8 129.3 88.6 125.3 90.9 122.2C94.9 116.7 102.3 114.9 108.5 117.6C108.8 117.8 109.1 118 109.4 118.2C110 118.6 110.7 119 111.3 119.4Z" fill="#EBEBEB"/>
<path d="M109.7 117.8L109.5 118C109.2 117.8 108.9 117.7 108.5 117.5C102.2 113.2 93.5 114.9 89.5 121C87.2 124.6 86.9 129.1 88.3 133C88.6 135 89.4 136.9 90.5 138.6C86 133.8 85.2 126.3 89.1 120.7C93.8 114.2 103.3 112.7 109.7 117.8Z" fill="#EBEBEB"/>
<path d="M109.6 118L109.5 118.2C109.2 118 108.9 117.8 108.6 117.6C108.9 117.7 109.2 117.8 109.6 118Z" fill="#EBEBEB"/>
<path d="M108.6 117.5C102.4 114.8 95 116.7 91 122.1C88.7 125.3 87.9 129.2 88.5 132.9C87 129 87.3 124.5 89.7 120.9C93.6 114.9 102.3 113.2 108.6 117.5Z" fill="#EBEBEB"/>
<path d="M94.7 140.1C94.4 140.4 94.1 140.7 93.8 141C92.8 140.4 91.9 139.7 91.2 139C90.7 138.3 90.2 137.5 89.9 136.7C89.5 135.8 89.2 134.9 89 133.9C90 136.5 92 138.7 94.7 140.1Z" fill="#EBEBEB"/>
<path d="M94.2 142.3C94 142.2 93.8 142.1 93.5 141.9C92.3 140.9 91.3 139.8 90.6 138.6C90.7 138.8 90.9 138.9 91.1 139.1C91.9 140.3 93 141.3 94.2 142.3Z" fill="#EBEBEB"/>
<path d="M91.1 139.1C90.9 138.9 90.8 138.8 90.6 138.6C89.5 136.9 88.8 135 88.4 133C88.5 133.3 88.6 133.6 88.8 133.9C89 134.9 89.3 135.8 89.7 136.7C90.1 137.5 90.6 138.3 91.1 139.1Z" fill="#EBEBEB"/>
<path d="M97.8 142.6C93.4 142 89.7 138.8 88.1 134.5C88 134.1 87.8 133.7 87.7 133.3C89 138.4 93 142.2 97.8 143C98.2 143.1 104.7 144 108.6 139.1C111.6 135.3 110.9 130.7 110.7 130C110.7 130.5 110.8 131.4 110.6 132.5C110.6 132.6 110.6 132.8 110.6 132.9C110.4 135.2 109.6 137.3 108.2 138.9C105.9 141.8 101.6 143.1 97.8 142.6Z" fill="#EBEBEB"/>
<path d="M88.1 134.5C89.7 138.8 93.4 142 97.8 142.6C101.6 143.1 105.8 141.8 108.3 138.8C109.6 137.2 110.5 135.1 110.7 132.8C110.7 132.7 110.7 132.5 110.7 132.4C110.5 133.8 110 135.5 108.7 137.2C105 142 98.6 141.3 97.9 141.1C93.3 140.4 89.6 137.3 87.8 133.3C87.9 133.7 88 134.1 88.1 134.5Z" fill="#EBEBEB"/>
<path d="M87.7 133.3C89.5 137.3 93.3 140.4 97.8 141.1C98.5 141.2 105 142 108.6 137.2C109.8 135.6 110.4 133.8 110.6 132.4C110.6 131.9 110.6 131.4 110.7 130.9V131C110.1 137.4 104.4 141.8 97.9 140.7C93.4 140 89.7 136.9 88 133L87.7 133.3Z" fill="#EBEBEB"/>
<path d="M110.7 130.9C110.7 131.4 110.7 131.9 110.6 132.4C110.8 131.3 110.7 130.4 110.7 129.9C110.8 130.2 110.7 130.6 110.7 130.9Z" fill="#EBEBEB"/>
<path d="M101.5 96.5C102 96.5 102.3 96.6 102.5 96.7C102.8 96.9 103 97.2 103 97.5L102.9 113.2C102.9 114.3 102 115.3 100.9 115.5C99.7 115.7 103.1 115.5 103.2 115.5H104C104.1 115.5 105.7 116.1 105.6 115.9C104.9 115.2 104.4 114.3 104.4 113.1L104.5 96.3C104.5 96.2 104.3 96.1 104.1 96.1H103.3C103.2 96.1 100.1 96.4 101.5 96.5Z" fill="#EBEBEB"/>
<path d="M102.2 96.4C102.2 96.5 102.6 96.4 103 96.7C103.2 96.8 103.3 97 103.3 97.2L103.2 115.3C103.2 115.4 103.4 115.5 103.6 115.5H104.4C104.8 115.6 105.3 115.7 106 115.9C106.7 116.1 107.2 116.3 107.2 116.2C107.3 116.1 105.3 115.4 104.9 113.9C104.8 113.6 104.8 113.2 104.8 113.1C104.8 108.5 104.8 103.9 104.9 99.2C104.9 98.8 104.9 97.7 105.7 97.1C105.8 97 106.1 96.8 106.9 96.6C108.5 96.3 109.5 96.5 109.6 96.3C109.6 96.1 108.7 95.7 107.7 95.6C106.4 95.4 105.3 95.8 104.6 96H103.8C102.5 96.3 102.2 96.4 102.2 96.4Z" fill="#EBEBEB"/>
<path d="M25.2 58C25 57.6 24.9 57.3 24.8 56.9C24.7 56.5 24.8 56.1 24.9 55.7C25 55.3 25.2 54.9 25.4 54.6C25.7 54.1 26.1 53.8 26.5 53.6C26.9 53.4 27.5 53.4 28 53.5C28 53.5 28.1 53.5 28.2 53.5C28.3 53.5 28.4 53.6 28.6 53.6C28.7 53.6 28.8 53.6 28.9 53.7C29 53.7 29 53.7 29 53.7V53.6C28.9 53.5 28.8 53.5 28.8 53.4C28.7 53.3 28.7 53.3 28.6 53.2C28.5 53.1 28.5 53.1 28.4 53.1L27.8 52.7L27.5 52.5C27.3 52.4 27.1 52.2 26.8 52.1C26.5 51.9 26.2 51.8 26 51.6C25.7 51.4 25.5 51.3 25.3 51.2C25.1 51.1 25 51 25 51.1C24.9 51.3 24.7 51.6 24.6 51.8C24.5 52.1 24.4 52.3 24.2 52.5C24 52.8 23.8 53 23.6 53.1C23.4 53.3 23.1 53.4 22.9 53.5C22.6 53.6 22.4 53.6 22.1 53.6C21.8 53.6 21.6 53.5 21.3 53.3C20.9 53 20.7 52.7 20.5 52.4C20.4 52 20.3 51.6 20.4 51.2C20.4 50.8 20.5 50.3 20.6 49.9C20.7 49.5 20.8 49.1 20.9 48.7C21 48.4 21 48.1 20.9 47.8C20.9 47.5 20.8 47.2 20.7 46.9C20.7 46.9 20.8 46.9 20.9 46.9C21 46.9 21.2 46.9 21.3 46.9C21.5 46.9 21.6 46.8 21.8 46.7C22 46.6 22.1 46.5 22.3 46.2L22.5 45.9C22.5 45.8 22.5 45.7 22.5 45.6C22.5 45.5 22.5 45.4 22.4 45.2C22.4 45.1 22.4 45 22.3 44.9C22.3 44.8 22.3 44.7 22.3 44.7C22.4 44.8 22.5 44.9 22.6 44.9C22.7 45 22.7 45.1 22.8 45.2C23 45.8 23.1 46.3 23.1 46.9C23.1 47.5 22.9 48 22.6 48.5L22.5 48.7C22.4 48.8 22.4 48.9 22.4 48.9C22.4 48.9 22.5 49 22.6 49.1L22.7 49.2C22.7 49.2 22.8 49.2 22.8 49.3L23 49.4C23.1 49.4 23.2 49.5 23.3 49.6C23.4 49.7 23.6 49.8 23.8 49.9C24 50 24.1 50.1 24.3 50.2C24.4 50.3 24.5 50.3 24.6 50.4L24.7 50.3C24.8 50.1 24.9 49.9 25 49.7C25.1 49.5 25.2 49.2 25.3 49C25.5 48.7 25.8 48.4 26.1 48.3C26.4 48.1 26.7 48 27.1 48C27.4 48 27.8 48 28.1 48.1C28.4 48.2 28.8 48.3 29.1 48.5C29.5 48.8 29.9 49.2 30.1 49.6C30.3 50.1 30.4 50.5 30.4 51C30.4 51.5 30.4 52 30.2 52.5C30.1 53 29.9 53.4 29.6 53.8C29.3 54.2 29 54.6 28.7 54.9C28.3 55.2 27.9 55.5 27.5 55.6C27.3 55.6 27.1 55.7 26.9 55.7C26.7 55.7 26.5 55.8 26.3 55.8C26.1 55.8 25.9 55.9 25.8 56C25.6 56.1 25.5 56.2 25.4 56.4C25.3 56.6 25.2 56.8 25.2 57C25.2 57.2 25.3 57.4 25.3 57.6C25.4 57.8 25.5 58 25.6 58.1C25.7 58.3 25.9 58.4 26.1 58.5C26.5 58.8 26.9 58.9 27.3 58.9C27.7 58.9 28 58.7 28.4 58.5C28.7 58.3 29 58 29.3 57.7C29.6 57.4 29.8 57 30 56.7C30.3 56.2 30.5 55.7 30.7 55.2C30.8 54.7 30.9 54.1 30.8 53.6L30.9 53.5C31 53.6 31.1 53.7 31.1 53.8C31.1 53.9 31.1 54.1 31.2 54.2C31.3 55.3 31.1 56.3 30.5 57.3C30.3 57.7 30 58 29.7 58.3C29.4 58.6 29 58.8 28.7 59C28.3 59.2 27.9 59.2 27.5 59.2C27.1 59.2 26.7 59 26.2 58.8C25.7 58.6 25.4 58.3 25.2 58ZM22.8 51.5C23 51.6 23.2 51.6 23.4 51.7C23.6 51.7 23.8 51.7 24 51.6C24.2 51.5 24.3 51.4 24.5 51.2C24.5 51.1 24.6 51.1 24.6 51C24.6 50.9 24.6 50.8 24.6 50.8L22.3 49.3C22.2 49.3 22.1 49.2 22 49.3C21.9 49.3 21.7 49.3 21.6 49.4C21.5 49.4 21.4 49.5 21.3 49.5C21.2 49.6 21.1 49.6 21.1 49.6C21 49.7 21 49.9 21.1 50C21.2 50.2 21.3 50.3 21.4 50.5C21.5 50.7 21.7 50.8 21.9 50.9C22.1 51 22.2 51.1 22.2 51.2C22.4 51.3 22.6 51.4 22.8 51.5ZM29.7 53.3C29.9 53 29.9 52.8 29.8 52.5C29.7 52.3 29.6 52 29.4 51.8C29.2 51.6 29 51.4 28.8 51.2C28.6 51 28.3 50.9 28.2 50.8C28 50.7 27.8 50.6 27.5 50.4C27.2 50.2 26.9 50.1 26.7 50C26.4 49.9 26.1 49.9 25.9 49.9C25.6 49.9 25.4 50.1 25.3 50.3C25.2 50.4 25.2 50.5 25.3 50.6C25.4 50.7 25.4 50.8 25.6 50.9L29.5 53.4L29.7 53.3V53.3Z" fill="#EBEBEB"/>
<path d="M46 32.7C46 32.8 46 33 46 33.1C46 33.2 46 33.3 46 33.4C46 33.5 46 33.5 45.9 33.4C45.7 33.1 45.6 32.8 45.6 32.5C45.6 32.2 45.6 31.8 45.7 31.5L45.6 31.3L44 29.4C43.9 29.2 43.8 29.1 43.6 28.9C43.5 28.7 43.3 28.5 43.1 28.4C42.9 28.2 42.8 28.1 42.6 28.1C42.5 28 42.3 28 42.2 28.1C42.2 28.1 42.2 28.1 42.1 28.2C42.1 28.3 42.1 28.3 42.1 28.4C42.1 28.5 42.1 28.5 42 28.6H41.9V28.5C41.9 28.1 42 27.8 42.1 27.4C42.2 27 42.3 26.7 42.4 26.3C42.4 26.3 42.5 26.3 42.7 26.4C42.9 26.5 43.1 26.5 43.2 26.6C43.4 26.7 43.6 26.8 43.7 26.8C43.9 26.9 43.9 26.9 44 26.9L44.1 26.8C44.2 26.4 44.3 26 44.4 25.7C44.5 25.4 44.6 25 44.6 24.5C44.6 24.5 44.6 24.5 44.7 24.5C44.8 24.5 44.8 24.5 44.9 24.5C45 24.5 45 24.5 45.1 24.5C45.2 24.5 45.2 24.5 45.3 24.5C45.7 24.5 46.1 24.7 46.4 25C46.7 25.3 47 25.6 47.2 25.9C47.3 26 47.4 26.1 47.5 26.3C47.6 26.4 47.7 26.5 47.8 26.7C47.9 26.8 48 26.9 48.1 27C48.2 27.1 48.3 27.3 48.4 27.4C48.7 27.7 48.9 28.1 49 28.5C49.2 28.9 49.2 29.2 49 29.6C48.8 30 48.7 30.3 48.6 30.7C48.5 31 48.4 31.4 48.3 31.8H48.2H47.8H47.7C47.7 31.8 47.7 31.8 47.7 31.9C47.8 32.1 47.9 32.3 48.1 32.4C48.2 32.6 48.3 32.8 48.4 32.9C48.4 33.1 48.4 33.2 48.3 33.5C48.3 33.7 48.3 34 48.2 34.2C48.2 34.4 48.1 34.6 48.1 34.8C48.1 35 48 35.1 48 35.1C47.9 35.1 47.9 35.1 47.9 35.1L46 32.6C46 32.5 45.9 32.5 45.9 32.6C45.8 32.6 45.8 32.7 45.8 32.7C46 32.5 46 32.6 46 32.7ZM47 30C47.2 30 47.3 30 47.5 30C47.7 30 47.8 30 48 30C48.2 30 48.3 30 48.3 29.9H48.4V29.8C48.1 29.3 47.8 28.9 47.5 28.6C47.2 28.2 46.9 27.8 46.6 27.4C46.5 27.3 46.4 27.2 46.3 27C46.2 26.8 46 26.7 45.8 26.5C45.6 26.3 45.4 26.2 45.2 26.1C45 26 44.8 26 44.7 26.2C44.5 26.3 44.4 26.5 44.5 26.8C44.6 27 44.7 27.3 44.8 27.6C45 27.9 45.2 28.2 45.4 28.5C45.6 28.8 45.9 29.1 46.1 29.3L46.2 29.4C46.2 29.4 46.2 29.5 46.3 29.5C46.4 29.6 46.4 29.6 46.4 29.7C46.4 29.8 46.5 29.8 46.5 29.9C46.6 30 46.6 30 46.6 30C46.8 30 46.9 30 47 30Z" fill="#EBEBEB"/>
<path d="M68.8 15.4C68.7 15.3 68.6 15.3 68.5 15.3C68.4 15.4 68.3 15.4 68.3 15.6C68.3 15.7 68.2 15.8 68.1 15.9C68.1 15.9 68.1 15.7 68.2 15.5C68.3 15.3 68.3 15 68.4 14.7C68.5 14.4 68.6 14.2 68.7 13.9C68.8 13.7 68.9 13.5 69 13.5H69.1C69.2 13.5 69.3 13.5 69.5 13.5C69.7 13.6 69.8 13.7 69.9 13.7C70 13.8 70.2 13.9 70.3 14C70.4 14.1 70.5 14.1 70.5 14.1L70.8 13.5L70.9 13.7C70.9 13.9 70.8 14 70.8 14.2C70.8 14.4 70.7 14.5 70.7 14.7C70.8 14.9 70.9 15.2 71 15.4C71.1 15.6 71.2 15.9 71.3 16.1L71.9 17.5L72 17.7C72.1 17.8 72.1 18 72.2 18.1C72.3 18.3 72.4 18.4 72.5 18.5C72.6 18.6 72.7 18.7 72.8 18.8C72.9 18.9 73 18.9 73.1 18.8L73.2 18.7L73.3 18.6H73.4C73.4 18.6 73.4 18.8 73.3 19C73.2 19.2 73.1 19.4 73 19.7C72.9 19.9 72.8 20.2 72.7 20.4C72.6 20.6 72.6 20.7 72.6 20.7H72.5C72.2 20.6 72 20.5 71.8 20.5C71.6 20.4 71.4 20.3 71.3 20.2C71.2 20.1 71 19.9 70.9 19.7C70.8 19.5 70.7 19.3 70.5 19L70.3 18.6C70.2 18.4 70.1 18.1 70 17.8C69.9 17.5 69.7 17.2 69.6 16.9C69.5 16.6 69.3 16.3 69.2 16.1C69.1 15.9 69 15.7 68.9 15.6C69 15.5 68.9 15.5 68.8 15.4ZM67.7 11.6C67.8 11.4 67.9 11.2 68.2 11.1C68.4 11 68.7 11 68.9 11.1C69.1 11.2 69.3 11.4 69.4 11.6C69.5 11.8 69.5 12 69.5 12.3C69.4 12.5 69.3 12.7 69.1 12.8C68.9 12.9 68.6 12.9 68.4 12.9C68.2 12.8 68 12.7 67.9 12.4C67.6 12.1 67.6 11.8 67.7 11.6Z" fill="#EBEBEB"/>
<path d="M92.8 13.9H92.7C92.7 13.8 92.7 13.7 92.8 13.6C92.9 13.5 93 13.4 93 13.3C93 13.2 93.2 13.1 93.2 13C93.3 12.9 93.3 12.8 93.3 12.7L93 9.2C93 9.1 93 9.1 93 9C93 8.9 92.9 8.8 92.9 8.8C92.9 8.7 92.8 8.7 92.7 8.6C92.6 8.5 92.6 8.5 92.5 8.5C92.4 8.5 92.3 8.6 92.2 8.7C92.1 8.8 92 8.9 91.9 8.9C91.9 8.8 91.9 8.7 92 8.5C92.1 8.4 92.1 8.3 92.2 8.2C92.3 8.1 92.4 8 92.5 7.9C92.6 7.8 92.7 7.7 92.8 7.7C92.8 7.7 92.8 7.6 92.9 7.6C93 7.4 93 7.3 93.1 7.2C93.2 7.1 93.2 7 93.3 7C93.4 6.9 93.4 6.9 93.4 6.9C93.5 6.9 93.6 6.9 93.8 7.1C93.9 7.2 94 7.3 94.1 7.5C94.2 7.6 94.3 7.8 94.4 7.9C94.5 7.9 94.6 8 94.6 8C94.7 8 94.8 7.9 94.8 7.8C94.9 7.7 94.9 7.5 95 7.4C95.1 7.3 95.1 7.1 95.2 7C95.3 6.9 95.3 6.8 95.4 6.8C95.5 6.9 95.5 7 95.6 7.1C95.7 7.2 95.8 7.2 95.9 7.2C96.1 7.2 96.3 7.1 96.3 7C96.4 6.9 96.4 6.7 96.5 6.5C96.5 6.5 96.6 6.5 96.6 6.6V6.7C96.6 6.9 96.6 7.2 96.6 7.4C96.6 7.6 96.5 7.8 96.4 8C96.3 8.2 96.1 8.3 96 8.5C95.8 8.6 95.6 8.7 95.4 8.7C95.3 8.7 95.2 8.7 95.1 8.7C95 8.7 94.9 8.7 94.8 8.7H94.7L95.1 12.2C95.1 12.2 95.1 12.3 95.2 12.4C95.3 12.5 95.3 12.6 95.4 12.7C95.5 12.8 95.6 12.9 95.6 12.9C95.7 13 95.7 13 95.8 13H96.1L96.2 12.9C96.2 12.8 96.3 12.8 96.4 12.7C96.5 12.6 96.5 12.6 96.6 12.5C96.7 12.4 96.7 12.4 96.8 12.4V12.5V12.6L95 14.8H94.9C94.9 14.8 94.8 14.8 94.7 14.7C94.6 14.6 94.5 14.6 94.5 14.6C94.2 14.4 94 14.2 93.9 14C93.8 13.8 93.6 13.6 93.4 13.3L92.8 13.9Z" fill="#EBEBEB"/>
<path d="M119.1 9.69999C119 9.59999 119 9.49999 118.9 9.49999C118.8 9.49999 118.7 9.49999 118.6 9.59999C118.5 9.69999 118.4 9.69999 118.3 9.69999C118.3 9.59999 118.4 9.49999 118.6 9.39999C118.8 9.19999 119 9.09999 119.2 8.89999C119.4 8.69999 119.7 8.59999 119.9 8.39999C120.1 8.29999 120.3 8.19999 120.4 8.19999H120.5C120.6 8.19999 120.7 8.29999 120.8 8.39999C120.9 8.49999 121 8.69999 121 8.79999C121.1 8.99999 121.1 9.09999 121.2 9.19999C121.2 9.29999 121.3 9.39999 121.3 9.39999L121.9 8.99999V9.19999C121.8 9.29999 121.7 9.39999 121.5 9.59999C121.4 9.69999 121.3 9.89999 121.2 9.99999C121.2 10.3 121.1 10.5 121.1 10.8C121.1 11.1 121 11.3 121 11.6L120.8 13.1V13.4C120.8 13.5 120.8 13.7 120.7 13.8C120.7 14 120.7 14.1 120.7 14.3C120.7 14.5 120.7 14.6 120.8 14.7C120.8 14.8 120.9 14.9 121 14.9C121 14.9 121.1 14.9 121.2 14.8C121.3 14.8 121.4 14.7 121.4 14.7H121.5C121.5 14.7 121.4 14.8 121.2 15C121 15.1 120.8 15.3 120.6 15.4C120.4 15.6 120.2 15.7 120 15.8C119.8 15.9 119.7 16 119.7 16H119.6C119.4 15.8 119.2 15.6 119.1 15.4C119 15.2 118.9 15 118.9 14.9C118.9 14.7 118.8 14.5 118.9 14.3C118.9 14.1 119 13.8 119 13.5L119.1 13.1C119.1 12.9 119.2 12.6 119.2 12.3C119.2 12 119.3 11.7 119.3 11.3C119.3 11 119.4 10.7 119.4 10.4C119.4 10.1 119.5 9.89999 119.5 9.79999C119.1 9.99999 119.1 9.89999 119.1 9.69999ZM120.2 5.99999C120.4 5.79999 120.6 5.79999 120.9 5.79999C121.2 5.79999 121.4 5.99999 121.5 6.19999C121.6 6.39999 121.7 6.59999 121.6 6.89999C121.6 7.09999 121.5 7.29999 121.3 7.49999C121.1 7.69999 120.9 7.69999 120.7 7.69999C120.4 7.69999 120.2 7.49999 120.1 7.39999C120 7.19999 119.9 6.99999 119.9 6.69999C119.9 6.39999 120 6.19999 120.2 5.99999Z" fill="#EBEBEB"/>
<path d="M139.1 21.9L138.9 21.8C138.9 21.7 139 21.6 139.1 21.6C139.2 21.5 139.3 21.5 139.4 21.5C139.5 21.5 139.6 21.4 139.6 21.4C139.7 21.3 139.7 21.3 139.8 21.2C139.8 21.1 139.9 21.1 139.9 21C139.9 20.9 140 20.9 140 20.9L141.4 17.4C141.4 17.4 141.4 17.3 141.4 17.2C141.4 17.1 141.5 17 141.5 16.9C141.5 16.8 141.6 16.7 141.6 16.6C141.6 16.5 141.7 16.5 141.7 16.4C141.7 16.4 141.7 16.3 141.6 16.3C141.6 16.3 141.5 16.2 141.4 16.2C141.3 16.2 141.3 16.1 141.2 16.1C141.1 16.1 141.1 16 141.1 15.9L141.2 15.7C141.2 15.7 141.3 15.6 141.3 15.5C141.4 15.4 141.4 15.4 141.4 15.4L141.9 15.6C141.9 15.6 142 15.6 142 15.5C142 15.4 142.1 15.4 142.1 15.4C142.3 15.1 142.5 14.9 142.6 14.7C142.8 14.5 142.9 14.3 143.1 14.2C143.3 14.1 143.5 13.9 143.7 13.8C143.9 13.7 144.2 13.6 144.6 13.6C144.7 13.6 144.9 13.6 145 13.6C145.1 13.6 145.3 13.6 145.4 13.7C145.3 13.8 145.3 13.9 145.1 13.9C145 13.9 144.9 14 144.8 14C144.6 14.2 144.4 14.4 144.3 14.7C144.2 14.9 144.1 15.2 144 15.5C144 15.6 143.9 15.7 143.9 15.8C143.9 15.9 143.8 16 143.8 16.1C143.8 16.2 143.8 16.3 143.8 16.4C143.8 16.5 143.9 16.5 144 16.6C144.1 16.7 144.3 16.7 144.4 16.8C144.5 16.9 144.5 17 144.4 17.2C144.4 17.2 144.4 17.3 144.3 17.4H144.2C144.1 17.4 144.1 17.3 144 17.3C143.9 17.3 143.8 17.2 143.7 17.2C143.6 17.2 143.5 17.2 143.5 17.3L141.8 21.6C141.7 21.7 141.7 21.9 141.8 22.2C141.8 22.4 141.9 22.6 142.1 22.7C142.2 22.7 142.3 22.7 142.4 22.7C142.5 22.7 142.6 22.6 142.6 22.6V22.7V22.8C142.6 22.8 142.4 22.9 142.2 23C142 23.1 141.7 23.2 141.5 23.3C141.2 23.4 141 23.5 140.8 23.6C140.6 23.7 140.5 23.7 140.4 23.7H140.3C140.2 23.7 140.2 23.6 140.1 23.5C140.1 23.4 140 23.2 140 23.1C140 22.9 139.9 22.8 139.9 22.6C139.8 22.4 139.8 22.3 139.7 22.2L139.1 21.9Z" fill="#EBEBEB"/>
<path d="M159.8 32.9L159.7 32.8L159.8 32.7C159.9 32.7 160.1 32.7 160.3 32.6C160.5 32.5 160.7 32.5 160.8 32.3L163.2 29.3C163.2 29.3 163.3 29.2 163.3 29.1C163.4 29 163.4 28.9 163.5 28.8C163.6 28.7 163.6 28.6 163.6 28.5C163.6 28.4 163.6 28.3 163.5 28.3H163.4C163.3 28.3 163.3 28.3 163.2 28.3C163.1 28.3 163.1 28.3 163.1 28.2V28.1C163.1 28.1 163.2 28.1 163.5 28.1C163.7 28.1 164 28.1 164.3 28.1C164.6 28.1 164.8 28.1 165.1 28.1C165.3 28.1 165.5 28.1 165.5 28.1V28.2C165.5 28.5 165.5 28.8 165.5 29.1C165.5 29.4 165.4 29.7 165.2 30L164.9 30.4C164.8 30.6 164.6 30.8 164.4 31C164.2 31.2 164 31.5 163.9 31.7C163.7 31.9 163.5 32.2 163.4 32.4C163.2 32.6 163.1 32.8 162.9 33C162.8 33.1 162.8 33.2 162.7 33.3C162.6 33.4 162.6 33.5 162.5 33.6C162.5 33.7 162.4 33.8 162.5 33.9C162.5 34 162.6 34.1 162.7 34.2H162.8L163.7 34.1L164 33.9L166.4 31C166.4 31 166.5 30.9 166.5 30.7C166.6 30.6 166.5 30.4 166.5 30.4C166.4 30.3 166.3 30.3 166.2 30.3C166.1 30.3 166 30.3 166 30.2L166.1 30.1C166.1 30.1 166.2 30.1 166.4 30C166.6 30 166.7 30 166.9 30C167.1 30 167.3 30 167.6 30C167.9 30 168 30 168.2 30H168.3C168.3 30 168.4 30.1 168.4 30.3C168.4 30.4 168.4 30.6 168.4 30.7C168.4 30.8 168.4 31 168.4 31.2C168.4 31.4 168.4 31.5 168.4 31.6L169.2 31.5L169.3 31.6C169.2 31.7 169.1 31.7 169 31.8C168.9 31.8 168.8 31.8 168.6 31.9C168.5 31.9 168.4 31.9 168.2 32C168.1 32 168 32.1 167.9 32.2C167.8 32.3 167.7 32.5 167.5 32.7C167.3 32.9 167.1 33.2 166.9 33.4C166.7 33.7 166.5 33.9 166.3 34.1C166.1 34.3 166 34.5 165.9 34.6L165.6 35C165.5 35.1 165.5 35.1 165.4 35.2C165.3 35.3 165.3 35.4 165.2 35.5C165.2 35.6 165.1 35.7 165.1 35.8C165.1 35.9 165.1 36 165.2 36C165.3 36.1 165.4 36.1 165.5 36C165.6 36 165.7 36 165.8 36.1C165.8 36.2 165.6 36.2 165.4 36.3C165.2 36.4 164.9 36.4 164.6 36.4C164.3 36.4 164.1 36.5 163.8 36.5C163.6 36.5 163.4 36.5 163.4 36.5H163.3C163.2 36.5 163.2 36.3 163.2 36.1C163.2 35.9 163.2 35.7 163.2 35.5C163.2 35.3 163.2 35.1 163.3 34.9C163.3 34.7 163.3 34.6 163.3 34.5C162.9 34.5 162.5 34.5 162.1 34.5C161.7 34.5 161.4 34.5 160.9 34.6L160.8 34.5C160.7 34.4 160.6 34.3 160.6 34.1C160.6 33.9 160.6 33.8 160.6 33.6C160.6 33.4 160.6 33.3 160.6 33.1C160.6 33 160.6 32.9 160.6 32.8H160.5L159.8 32.9Z" fill="#EBEBEB"/>
<path d="M179.1 53.8C179 53.8 178.9 53.7 178.8 53.7C178.7 53.7 178.6 53.7 178.5 53.6C178.4 53.6 178.4 53.5 178.3 53.5V53.4C178.5 53.3 178.7 53.2 178.9 53.2C179.2 53.2 179.4 53.2 179.7 53.3C180 53.4 180.2 53.5 180.4 53.6C180.6 53.7 180.8 53.9 180.9 54C181.1 54.2 181.2 54.5 181.3 54.7C181.4 54.9 181.4 55.2 181.3 55.5H181.4L183 54.4C183.1 54.3 183.2 54.2 183.2 54C183.2 53.8 183.2 53.7 183.1 53.6C183 53.5 182.9 53.4 182.8 53.4C182.7 53.3 182.5 53.3 182.4 53.2C182.3 53.1 182.1 53.1 182 53C181.9 52.9 181.7 52.8 181.6 52.6C181.5 52.4 181.4 52.3 181.4 52.1C181.4 51.9 181.4 51.8 181.5 51.6C181.6 51.4 181.6 51.3 181.8 51.1C181.9 51 182 50.8 182.2 50.7C182.5 50.5 182.7 50.4 183 50.4C183.2 50.4 183.5 50.4 183.7 50.5C183.9 50.6 184.2 50.7 184.4 50.8C184.6 50.9 184.9 51 185.2 51.2C185.4 51.3 185.6 51.4 185.9 51.5C186.2 51.6 186.4 51.7 186.6 51.8C186.6 51.8 186.6 51.9 186.6 52C186.6 52.1 186.5 52.2 186.5 52.3C186.5 52.4 186.4 52.5 186.4 52.6C186.4 52.7 186.4 52.8 186.5 52.9C186.6 53 186.7 53.1 186.8 53.2C186.9 53.2 187 53.2 187.1 53.2C187.2 53.2 187.3 53.2 187.4 53.2C187.5 53.2 187.6 53.2 187.6 53.3C187.4 53.4 187.2 53.5 187 53.5C186.7 53.6 186.5 53.6 186.2 53.5C185.9 53.5 185.7 53.4 185.5 53.3C185.3 53.2 185.1 53 184.9 52.8C184.9 52.7 184.8 52.6 184.8 52.5C184.8 52.4 184.8 52.2 184.7 52.1C184.7 52 184.7 51.8 184.6 51.7C184.6 51.6 184.5 51.6 184.5 51.6L183.2 52.4C183.1 52.5 183 52.5 183 52.7C182.9 52.8 182.9 52.9 183 53C183.1 53.1 183.2 53.2 183.3 53.3C183.4 53.4 183.6 53.4 183.7 53.5C183.8 53.5 184 53.6 184.1 53.7C184.2 53.8 184.4 53.9 184.5 54C184.6 54.2 184.7 54.4 184.7 54.6C184.7 54.8 184.7 55 184.6 55.2C184.5 55.4 184.4 55.6 184.2 55.7C184 55.9 183.9 56 183.7 56.1H183.6C183.4 56.2 183.2 56.3 183.1 56.4C183 56.5 182.8 56.5 182.6 56.6C182.4 56.6 182.2 56.6 182 56.5C181.8 56.4 181.6 56.3 181.4 56.2C181.2 56.1 181 55.9 180.8 55.8C180.6 55.7 180.4 55.6 180.2 55.6C180.2 55.6 180.1 55.6 180 55.5C179.9 55.5 179.8 55.5 179.8 55.4C179.7 55.4 179.6 55.3 179.6 55.3C179.5 55.3 179.5 55.2 179.5 55.2V55.1C179.6 54.8 179.6 54.5 179.6 54.3C179.6 54.1 179.5 53.8 179.4 53.6C179.3 53.9 179.2 53.9 179.1 53.8Z" fill="#EBEBEB"/>
<path d="M165.4 170.6C165.5 171 165.5 171.5 165.4 171.9C165.3 172.3 165.1 172.7 164.9 173.1C164.7 173.5 164.4 173.8 164.1 174.1C163.8 174.4 163.4 174.6 162.9 174.8C162.5 174.9 162 175 161.6 174.9L161.4 175.1C161.3 175.2 161.3 175.3 161.4 175.5C161.4 175.7 161.5 175.8 161.6 175.9V176C161.7 176.1 161.8 176.2 162 176.4C162.2 176.6 162.4 176.8 162.5 177C162.7 177.2 162.9 177.4 163 177.6C163.2 177.8 163.3 177.9 163.4 178C163.5 178 163.6 178 163.7 178C163.8 178 163.8 178.1 163.9 178.1C164 178.2 164 178.2 164 178.3C164 178.4 164 178.4 164 178.5L165.9 180.7H166H166.1C166.1 180.5 166.1 180.4 166.1 180.2C166.1 180 166 179.9 165.9 179.8C165.8 179.7 165.7 179.6 165.6 179.5C165.5 179.4 165.4 179.3 165.3 179.2C165 178.8 164.7 178.4 164.5 178C164.3 177.6 164.2 177.1 164.2 176.6C164.2 176.1 164.2 175.7 164.4 175.2C164.6 174.8 164.8 174.4 165.2 174C165.4 173.8 165.6 173.7 165.8 173.6C166 173.5 166.3 173.5 166.5 173.5C166.7 173.5 167 173.5 167.2 173.6C167.4 173.7 167.6 173.8 167.8 174C168.1 174.3 168.2 174.6 168.1 175C168.1 175.4 167.9 175.7 167.6 175.9C167.3 176.1 167 176.2 166.7 176.2C166.4 176.2 166.1 176 165.8 175.8C165.7 175.7 165.7 175.6 165.6 175.5C165.5 175.4 165.5 175.2 165.5 175.1C165.5 175 165.5 174.8 165.5 174.7C165.5 174.6 165.6 174.4 165.7 174.3L166.3 173.8C166.2 173.7 166.1 173.7 166 173.7C165.8 173.7 165.7 173.7 165.7 173.8L165.1 174.4L165 174.5C165 174.6 165 174.6 164.9 174.7C164.8 175.2 164.8 175.6 164.9 176C165 176.4 165.3 176.8 165.6 177.2C165.8 177.4 166 177.5 166.2 177.7C166.4 177.8 166.7 177.9 166.9 178C167.2 178.1 167.4 178.1 167.7 178C168 177.9 168.2 177.8 168.4 177.7L170.1 176.2C170.3 176.1 170.6 176 170.8 175.9C171.1 175.8 171.3 175.8 171.6 175.8C171.9 175.8 172.1 175.9 172.4 176C172.6 176.1 172.9 176.3 173 176.5L173.1 176.6C173.1 176.6 173.1 176.7 173.2 176.7C173.2 176.8 173.3 176.8 173.3 176.9C173.3 177 173.3 177 173.4 177.1C173.4 177.1 173.4 177.2 173.3 177.2C173.1 177 172.9 176.9 172.7 176.9C172.5 176.9 172.3 177 172.1 177.2C172 177.3 171.8 177.5 171.7 177.7C171.6 177.9 171.5 178.1 171.4 178.3C171.3 178.5 171.2 178.7 171.1 178.9C171 179.1 170.8 179.2 170.7 179.4L170.3 179.7C169.8 180.1 169.4 180.4 168.9 180.5C168.4 180.6 167.8 180.6 167 180.5C166.9 180.5 166.8 180.4 166.7 180.4C166.6 180.4 166.6 180.4 166.5 180.3C166.4 180.3 166.4 180.3 166.4 180.3H166.3C166.3 180.9 166.2 181.5 166.1 182.1C165.9 182.7 165.8 183.3 165.6 183.9H165.5C165.5 183.9 165.4 183.9 165.2 183.8C165 183.7 164.8 183.7 164.5 183.6C164.3 183.5 164 183.4 163.8 183.3C163.6 183.2 163.4 183.1 163.4 183.1C163.3 183.1 163.3 183 163.3 183L163.2 182.9L163 182.7C162.8 182.5 162.7 182.3 162.6 182C162.5 181.7 162.4 181.5 162.4 181.2C162.4 181.1 162.4 181 162.4 180.8C162.4 180.6 162.4 180.5 162.5 180.3C162.5 180.1 162.5 180 162.6 179.9C162.6 179.8 162.6 179.7 162.6 179.8C162.6 179.8 162.5 179.8 162.4 179.8C162.3 179.8 162.2 179.8 162.2 179.9C162.1 179.9 162 180 161.9 180C161.8 180 161.7 180 161.6 180C161.4 180 161.2 180 161.1 180C161 180 160.9 180 160.8 179.9C160.7 179.9 160.6 179.8 160.5 179.8C160.4 179.8 160.3 179.7 160.2 179.7C160.1 179.6 159.9 179.4 159.7 179.3C159.5 179.1 159.3 179 159.1 178.8C159 178.7 159 178.7 158.9 178.6C158.8 178.5 158.7 178.5 158.6 178.4C158.5 178.4 158.4 178.3 158.3 178.3C158.2 178.3 158.1 178.3 158 178.4C157.9 178.5 157.9 178.6 157.9 178.7C157.9 178.8 157.9 178.9 157.8 179L157.7 178.9C157.7 178.9 157.7 178.9 157.7 178.8C157.7 178.7 157.7 178.6 157.7 178.5C157.7 178.4 157.7 178.3 157.7 178.2C157.7 178.1 157.7 178 157.7 177.9C157.7 177.8 157.8 177.7 157.8 177.6C157.8 177.5 157.8 177.3 157.9 177.2C157.9 177 157.9 176.9 157.9 176.7C157.9 176.5 157.9 176.4 157.9 176.3L158 176.2L159 176.3C159.1 176.3 159.3 176.3 159.4 176.4C159.6 176.5 159.7 176.5 159.9 176.6C160.1 176.7 160.2 176.8 160.3 176.9C160.4 177 160.5 177.1 160.6 177.2L162.1 178.9C162.2 179 162.4 179.1 162.5 179.1C162.7 179.1 162.8 179 162.9 178.9C163 178.8 163.1 178.7 163.1 178.6C163.1 178.5 163.1 178.4 163 178.3L161.1 176.2C161 176.1 161 176 161 175.7C161 175.5 161 175.2 161.1 175C161.1 174.7 161.2 174.5 161.2 174.3C161.2 174.1 161.3 173.9 161.3 173.8C161.3 173.8 161.3 173.7 161.3 173.6C161.3 173.5 161.3 173.4 161.3 173.3C161.3 173.2 161.3 173.1 161.3 173C161.3 172.9 161.3 172.9 161.3 172.8C161.3 172.8 161.4 172.8 161.5 172.8C161.6 172.8 161.8 172.8 161.9 172.8C162.1 172.8 162.2 172.8 162.4 172.8C162.5 172.8 162.6 172.8 162.7 172.8C163.3 172.7 163.9 172.5 164.3 172.1C164.4 172 164.6 171.8 164.7 171.6C164.8 171.4 164.9 171.2 164.9 171C164.9 170.8 164.9 170.6 164.9 170.4C164.9 170.2 164.8 170 164.6 169.9C164.4 169.6 164.1 169.5 163.9 169.4C163.6 169.3 163.3 169.3 163 169.3C162.6 169.3 162.3 169.4 162.1 169.6C161.8 169.8 161.6 170 161.3 170.2C161.2 170.3 161.1 170.3 161 170.4C160.9 170.5 160.8 170.5 160.7 170.6L160.6 170.7C160.1 171.1 159.7 171.6 159.5 172.1C159.3 172.6 159.1 173.2 159.1 173.8L159 173.9C159 173.8 158.9 173.8 158.9 173.7C158.9 173.6 158.9 173.5 158.9 173.5C158.9 172.8 159 172.2 159.3 171.6C159.6 171 159.9 170.5 160.4 170.1C160.7 169.8 161 169.6 161.4 169.4C161.8 169.2 162.2 169.1 162.6 169C163 168.9 163.4 169 163.8 169.1C164.2 169.2 164.5 169.4 164.8 169.8C165.2 169.8 165.4 170.1 165.4 170.6ZM163.4 178.7C163.3 178.8 163.2 178.9 163.1 179L163 179.1C162.8 179.3 162.8 179.5 162.8 179.7C162.8 179.9 162.9 180.1 163 180.3C163.1 180.5 163.3 180.6 163.5 180.7C163.7 180.8 163.9 180.9 164.2 180.9C164.4 180.9 164.7 181 164.9 181C165.1 181 165.4 181 165.5 181C165.5 181 165.5 181 165.6 181H165.7C165.7 181 165.7 180.9 165.6 180.8L164.6 179.6C164.6 179.6 164.5 179.5 164.4 179.4C164.3 179.3 164.2 179.2 164.1 179.1C164 179 163.9 178.9 163.8 178.8C163.7 178.7 163.7 178.7 163.6 178.6C163.6 178.6 163.5 178.6 163.4 178.7Z" fill="#EBEBEB"/>
<path d="M140.4 194.9C140.2 194.8 140 194.7 139.8 194.5C139.6 194.3 139.4 194.2 139.3 194C139.1 193.8 139 193.7 139 193.5C138.9 193.2 138.8 192.8 138.8 192.5C138.8 192.2 138.9 191.8 139 191.5C139.1 191.2 139.2 190.8 139.3 190.5C139.4 190.2 139.6 189.9 139.7 189.6V189.5C139.7 189.4 139.6 189.3 139.4 189.2C139.3 189.1 139.1 189 138.9 189C138.7 188.9 138.6 188.9 138.4 188.9C138.2 188.9 138.1 188.9 138.1 188.9C137.9 189 137.8 189.1 137.8 189.2C137.8 189.3 137.7 189.5 137.6 189.6L137.4 189.7V189.6C137.4 189.6 137.4 189.5 137.5 189.3C137.6 189.1 137.6 189 137.7 188.9C137.7 188.9 137.8 188.7 137.9 188.6C138 188.4 138.1 188.2 138.2 188C138.3 187.8 138.4 187.6 138.5 187.4C138.6 187.2 138.7 187.1 138.7 187.1C138.9 187.1 139.2 187.1 139.5 187.2C139.8 187.3 140 187.4 140.3 187.6C140.6 187.8 140.8 188 141 188.2C141.2 188.4 141.4 188.6 141.4 188.8L142.3 190.9C142.5 191.2 142.5 191.6 142.4 191.9C142.3 192.2 142.2 192.6 142 192.9C141.8 193.2 141.6 193.6 141.4 193.9C141.2 194.2 141 194.6 140.9 194.9C140.7 195 140.6 195 140.4 194.9ZM139.8 190.1C139.7 190.1 139.6 190.2 139.6 190.4C139.5 190.5 139.5 190.7 139.5 190.9C139.5 191.1 139.5 191.3 139.5 191.4C139.5 191.5 139.5 191.7 139.6 191.8C139.6 191.9 139.7 192 139.8 192.2C139.9 192.4 140.1 192.5 140.2 192.7C140.4 192.9 140.5 193 140.7 193.1C140.9 193.2 141 193.2 141.2 193.2C141.3 193.2 141.3 193.1 141.3 193C141.3 192.9 141.3 192.8 141.2 192.6C141.1 192.4 141.1 192.3 141 192.2C140.9 192.1 140.9 192 140.9 191.9L140.7 191.4C140.6 191.2 140.5 191 140.4 190.8C140.3 190.6 140.2 190.4 140 190.1C139.9 190.1 139.8 190.1 139.8 190.1Z" fill="#EBEBEB"/>
<path d="M89.4 192.1H89.6C89.6 192.2 89.5 192.3 89.5 192.4C89.4 192.5 89.4 192.5 89.3 192.6C89.2 192.7 89.2 192.7 89.1 192.8C89 192.9 89 193 89 193.1C89 193.2 89 193.2 89 193.3C89 193.4 89 193.4 88.9 193.5L88.2 197.3C88.2 197.3 88.2 197.4 88.2 197.5C88.2 197.6 88.2 197.7 88.2 197.8C88.2 197.9 88.2 198 88.2 198.1C88.2 198.2 88.2 198.3 88.2 198.3C88.2 198.3 88.2 198.4 88.3 198.4C88.4 198.4 88.4 198.4 88.5 198.5C88.6 198.5 88.6 198.6 88.7 198.6C88.8 198.6 88.8 198.7 88.8 198.7V198.9C88.8 198.9 88.8 199 88.7 199.1C88.7 199.2 88.6 199.3 88.6 199.3L88 199.2C88 199.2 88 199.2 87.9 199.3C87.8 199.4 87.8 199.4 87.8 199.4C87.7 199.7 87.6 200 87.4 200.2C87.3 200.4 87.2 200.6 87 200.8C86.8 201 86.7 201.1 86.4 201.3C86.2 201.4 85.9 201.6 85.6 201.7C85.5 201.8 85.3 201.8 85.2 201.8C85.1 201.8 85 201.8 84.8 201.8C84.8 201.7 84.9 201.6 85 201.5C85.1 201.5 85.2 201.4 85.3 201.3C85.5 201.1 85.6 200.8 85.6 200.5C85.7 200.2 85.7 200 85.8 199.7C85.8 199.6 85.8 199.5 85.9 199.4C85.9 199.3 85.9 199.2 85.9 199.1C85.9 199 85.9 198.9 85.8 198.8C85.8 198.7 85.7 198.7 85.6 198.7C85.5 198.7 85.3 198.6 85.2 198.6C85.1 198.6 85 198.4 85.1 198.2C85.1 198.2 85.1 198.1 85.2 198L85.3 197.9C85.4 197.9 85.5 198 85.5 198C85.6 198 85.7 198 85.8 198C85.9 198 86 197.9 86 197.9L86.8 193.4C86.8 193.3 86.8 193.1 86.7 192.9C86.6 192.7 86.5 192.5 86.3 192.5C86.2 192.5 86.1 192.5 86 192.6C85.9 192.7 85.8 192.7 85.8 192.7L85.7 192.6V192.5C85.7 192.5 85.8 192.4 86 192.2C86.2 192.1 86.4 191.9 86.6 191.8C86.8 191.6 87.1 191.5 87.3 191.4C87.5 191.3 87.6 191.2 87.6 191.2H87.7C87.8 191.2 87.8 191.3 87.9 191.4C88 191.5 88 191.6 88.1 191.8C88.2 191.9 88.3 192.1 88.3 192.2C88.4 192.4 88.5 192.5 88.6 192.6L89.4 192.1Z" fill="#EBEBEB"/>
<path d="M114.2 201.7C114.2 201.6 114.1 201.6 114 201.5C113.9 201.4 113.9 201.4 113.8 201.3C113.7 201.3 113.6 201.3 113.5 201.3C113.4 201.3 113.3 201.4 113.3 201.4L113.2 201.5C113.2 201.5 113.2 201.6 113.2 201.7C113.2 201.8 113.2 201.8 113.1 201.9C113.1 201.9 113 201.9 113 201.8C113 201.7 113 201.7 113 201.7C113 201.5 112.9 201.3 113 201.1C113 200.9 113.1 200.7 113.2 200.5C113.3 200.3 113.4 200.1 113.6 200C113.8 199.9 113.9 199.8 114.2 199.7C114.3 199.7 114.4 199.7 114.5 199.7C114.6 199.7 114.7 199.8 114.8 199.8C114.9 199.8 115 199.9 115 199.9C115.1 199.9 115.1 199.9 115.2 199.9C115.3 199.9 115.3 199.8 115.3 199.6C115.3 199.5 115.3 199.3 115.2 199.1C115.2 199 115.1 198.9 115.1 198.7C115 198.5 115 198.2 114.9 198C114.8 197.7 114.7 197.4 114.7 197.1C114.7 196.8 114.5 196.5 114.5 196.3C114.5 196.2 114.4 196.1 114.3 195.9C114.2 195.8 114 195.6 113.9 195.5C113.7 195.4 113.6 195.3 113.4 195.2C113.2 195.1 113.1 195.1 113 195.1C113 195.1 112.9 195.1 112.9 195.2C112.9 195.3 112.8 195.3 112.8 195.4C112.8 195.5 112.7 195.6 112.7 195.6C112.6 195.7 112.6 195.7 112.5 195.7H112.4C112.4 195.6 112.4 195.4 112.5 195.3C112.6 195.1 112.7 195 112.8 194.9C112.9 194.8 113 194.6 113.2 194.5C113.3 194.4 113.4 194.3 113.5 194.2C113.5 194.2 113.6 194.1 113.6 194C113.7 193.9 113.7 193.8 113.8 193.7C113.9 193.6 113.9 193.5 114 193.4C114.1 193.3 114.1 193.3 114.1 193.3H114.2C114.4 193.4 114.7 193.6 114.9 193.7C115.1 193.8 115.4 194 115.6 194.2C115.8 194.4 116 194.6 116.1 194.8C116.2 195 116.4 195.3 116.4 195.5L117 198C117.1 198.2 117 198.5 117 198.7C116.9 198.9 116.8 199.1 116.7 199.3C116.6 199.5 116.4 199.7 116.2 199.9C116 200.1 115.9 200.3 115.8 200.4C115.8 200.4 115.7 200.5 115.6 200.6C115.5 200.7 115.4 200.8 115.3 201C115.2 201.1 115.1 201.2 115 201.4C114.9 201.6 114.9 201.6 114.8 201.6C114.3 201.8 114.2 201.8 114.2 201.7ZM114.1 200.5C114.1 200.6 114.1 200.7 114.1 200.6V200.5C114.2 200.5 114.2 200.5 114.1 200.5Z" fill="#EBEBEB"/>
<path d="M64.5 189C64.4 189.3 64.2 189.5 64.1 189.8C63.9 190.2 63.6 190.6 63.3 190.9C63 191.2 62.6 191.4 62.1 191.4C62 191.4 61.9 191.4 61.7 191.5C61.5 191.5 61.2 191.6 61 191.6C60.8 191.6 60.5 191.7 60.4 191.7C60.2 191.7 60.1 191.7 60.1 191.7H60C59.9 191.5 59.8 191.2 59.6 191C59.5 190.7 59.4 190.5 59.3 190.2C59.2 189.9 59.2 189.6 59.2 189.3C59.2 189 59.3 188.7 59.4 188.5L60.6 186.2C60.7 186 60.9 185.8 61.2 185.7C61.5 185.5 61.7 185.5 61.9 185.4L63.4 185.3C63.4 185.3 63.5 185.3 63.6 185.3C63.7 185.3 63.8 185.2 63.9 185.2C64 185.1 64.1 185.1 64.2 185.1C64.3 185.1 64.4 185 64.4 185.1C64.4 185.1 64.5 185.2 64.5 185.3C64.6 185.4 64.6 185.5 64.7 185.7C64.8 185.9 64.8 186 64.9 186.2C65 186.4 65 186.5 65.1 186.6C65.2 186.9 65.3 187.2 65.2 187.5C65.2 187.8 65.1 188.1 65 188.4C64.8 188.4 64.6 188.7 64.5 189ZM63.2 187.3C63.2 187.1 63.2 186.9 63.2 186.7C63.2 186.5 63.1 186.3 63 186.1C62.9 185.9 62.8 185.8 62.7 185.7C62.7 185.7 62.7 185.7 62.6 185.7C62.6 185.7 62.6 185.7 62.5 185.7L61.1 188.5C61.1 188.5 61.1 188.6 61 188.7C61 188.8 60.9 188.9 60.9 188.9C60.9 189 60.9 189.1 60.9 189.3C60.9 189.5 61 189.7 61 189.9C61 190.1 61.1 190.3 61.2 190.5C61.3 190.7 61.4 190.8 61.5 190.8H61.6C61.6 190.8 61.7 190.7 61.7 190.6C61.8 190.5 61.8 190.4 61.9 190.3C62 190.2 62 190.1 62.1 190C62.2 189.9 62.2 189.8 62.2 189.8L62.4 189.5C62.4 189.4 62.5 189.3 62.6 189.2C62.7 189 62.8 188.9 62.9 188.7C63 188.5 63.1 188.4 63.1 188.2C63.2 188 63.2 187.9 63.3 187.9C63.2 187.7 63.2 187.5 63.2 187.3ZM60.4 190.7C60.4 190.7 60.5 190.7 60.4 190.7C60.5 190.7 60.5 190.6 60.4 190.7C60.4 190.6 60.4 190.6 60.4 190.7Z" fill="#EBEBEB"/>
<path d="M44.3 171.7L44.4 171.8C44.3 171.9 44.3 171.9 44.1 171.9C43.9 171.9 43.8 171.9 43.7 171.9C43.6 171.9 43.4 171.9 43.3 172C43.2 172 43.1 172.1 43 172.2L40.7 174.9C40.7 174.9 40.6 175 40.6 175.1C40.6 175.2 40.5 175.3 40.5 175.3C40.5 175.4 40.5 175.5 40.5 175.6C40.5 175.7 40.5 175.8 40.6 175.8C40.7 175.9 40.8 175.9 40.9 175.9C41 175.9 41.1 175.9 41.2 176C41.1 176.1 41 176.2 40.9 176.2C40.8 176.2 40.6 176.2 40.5 176.2C40.4 176.2 40.2 176.2 40.1 176.2C40 176.2 39.8 176.2 39.7 176.2C39.7 176.2 39.6 176.2 39.5 176.2C39.4 176.2 39.3 176.2 39.2 176.2C39.1 176.2 39 176.2 38.9 176.2C38.8 176.2 38.7 176.2 38.7 176.2C38.6 176.1 38.6 176 38.6 175.8C38.6 175.6 38.6 175.5 38.7 175.3C38.7 175.1 38.8 175 38.8 174.8C38.8 174.7 38.8 174.6 38.8 174.5C38.7 174.4 38.6 174.4 38.5 174.5C38.4 174.5 38.2 174.6 38.1 174.6C37.9 174.6 37.8 174.7 37.7 174.7C37.6 174.7 37.5 174.7 37.4 174.7C37.4 174.6 37.5 174.4 37.5 174.3C37.5 174.2 37.4 174.1 37.3 174C37.1 173.8 37 173.8 36.9 173.8C36.8 173.8 36.6 173.9 36.4 173.9V173.8C36.4 173.8 36.4 173.7 36.5 173.7C36.7 173.5 36.8 173.4 37 173.2C37.2 173 37.4 173 37.6 172.9C37.8 172.9 38 172.8 38.2 172.9C38.4 172.9 38.6 173 38.8 173.2C38.9 173.3 39 173.4 39 173.4C39.1 173.5 39.1 173.5 39.2 173.6H39.3L41.6 171C41.6 171 41.7 170.9 41.7 170.8C41.7 170.7 41.7 170.6 41.7 170.5C41.7 170.4 41.7 170.3 41.7 170.2C41.7 170.1 41.7 170 41.6 170L41.3 169.8C41.3 169.8 41.2 169.8 41.1 169.8C41 169.8 40.9 169.8 40.8 169.8C40.7 169.8 40.6 169.8 40.5 169.8C40.4 169.8 40.3 169.8 40.3 169.7H40.4C40.4 169.7 40.5 169.7 40.5 169.6L43.3 169.5L43.4 169.6C43.4 169.6 43.4 169.7 43.4 169.8C43.4 169.9 43.4 170 43.4 170C43.4 170.3 43.4 170.6 43.4 170.8C43.4 171 43.3 171.3 43.3 171.6L44.3 171.7Z" fill="#EBEBEB"/>
<path d="M196 125.6C195.9 125.2 195.8 124.9 195.7 124.8C195.6 124.5 195.4 124.3 195.3 124.2C195.2 124.1 195 123.9 195 123.6L196.9 110.9C197.1 110.9 197.2 111.2 197.3 111.7C197.4 112.2 197.5 112.5 197.6 112.8C197.6 112.8 197.7 112.9 197.8 112.9C197.9 112.9 198 113 198 113.1C198.1 113.2 198.2 113.2 198.2 113.3C198.3 113.4 198.3 113.5 198.3 113.7L196.4 126.3C196.3 126.3 196.1 126 196 125.6Z" fill="#EBEBEB"/>
<path d="M10.9 118.7C11.8941 118.7 12.7 117.894 12.7 116.9C12.7 115.906 11.8941 115.1 10.9 115.1C9.90586 115.1 9.09998 115.906 9.09998 116.9C9.09998 117.894 9.90586 118.7 10.9 118.7Z" fill="#EBEBEB"/>
<path d="M88.5 131.4C88.6 132.4 89.1 135.5 91.4 137.6C93.7 139.7 88.5 135.2 88.5 135.2" fill="#EBEBEB"/>
</g>
<defs>
<clipPath id="clip0">
<rect width="207.9" height="207.9" fill="white"/>
</clipPath>
</defs>
</svg>