<svg width="215" height="215" viewBox="0 0 215 215" fill="none" xmlns="http://www.w3.org/2000/svg">
<g clip-path="url(#clip0)">
<path d="M103.188 131.032C104.942 131.032 106.331 132.42 106.331 134.174C106.331 135.928 104.942 137.316 103.188 137.316C101.434 137.316 100.046 135.928 100.046 134.174C100.046 132.42 101.434 131.032 103.188 131.032ZM106.185 134.174C106.185 132.493 104.869 131.178 103.188 131.178C101.507 131.178 100.119 132.493 100.119 134.174C100.119 135.855 101.507 137.243 103.188 137.243C104.869 137.243 106.185 135.855 106.185 134.174Z" fill="#EBEBEB"/>
<path d="M103.189 131.178C104.869 131.178 106.185 132.494 106.185 134.175C106.185 135.856 104.869 137.244 103.189 137.244C101.508 137.244 100.119 135.856 100.119 134.175C100.119 132.494 101.508 131.178 103.189 131.178ZM105.6 134.175C105.6 132.859 104.504 131.763 103.189 131.763C101.873 131.763 100.777 132.859 100.777 134.175C100.777 135.49 101.873 136.586 103.189 136.586C104.504 136.586 105.6 135.49 105.6 134.175Z" fill="#EBEBEB"/>
<path d="M103.188 131.689C104.504 131.689 105.6 132.786 105.6 134.101C105.6 135.416 104.504 136.513 103.188 136.513C101.873 136.513 100.777 135.416 100.777 134.101C100.704 132.786 101.8 131.689 103.188 131.689ZM105.527 134.174C105.527 132.859 104.504 131.835 103.188 131.835C101.873 131.835 100.85 132.859 100.85 134.174C100.85 135.489 101.873 136.513 103.188 136.513C104.504 136.513 105.527 135.489 105.527 134.174Z" fill="#EBEBEB"/>
<path d="M103.188 131.543C104.65 131.543 105.819 132.712 105.819 134.174C105.819 135.636 104.65 136.878 103.188 136.878C101.727 136.878 100.484 135.709 100.484 134.174C100.484 132.712 101.727 131.543 103.188 131.543ZM105.746 134.174C105.746 132.786 104.577 131.616 103.188 131.616C101.8 131.616 100.631 132.786 100.631 134.174C100.631 135.563 101.8 136.732 103.188 136.732C104.577 136.732 105.746 135.563 105.746 134.174Z" fill="#EBEBEB"/>
<path d="M103.189 131.617C104.577 131.617 105.747 132.786 105.747 134.174C105.747 135.563 104.577 136.732 103.189 136.732C101.8 136.732 100.631 135.563 100.631 134.174C100.558 132.713 101.727 131.617 103.189 131.617ZM105.235 134.174C105.235 133.005 104.285 132.128 103.189 132.128C102.02 132.128 101.143 133.078 101.143 134.174C101.143 135.344 102.093 136.221 103.189 136.221C104.285 136.221 105.235 135.344 105.235 134.174Z" fill="#EBEBEB"/>
<path d="M103.188 132.055C104.358 132.055 105.235 133.005 105.235 134.101C105.235 135.27 104.285 136.147 103.188 136.147C102.019 136.147 101.142 135.197 101.142 134.101C101.069 133.005 102.019 132.055 103.188 132.055ZM105.161 134.174C105.161 133.078 104.285 132.201 103.188 132.201C102.092 132.201 101.215 133.078 101.215 134.174C101.215 135.27 102.092 136.147 103.188 136.147C104.285 136.147 105.161 135.27 105.161 134.174Z" fill="#EBEBEB"/>
<path d="M107.5 22.1431L181.53 150.398H33.4705H33.5435H181.457L107.5 22.2162V22.1431Z" fill="#EBEBEB"/>
<path d="M107.5 22.2162L181.456 150.398H33.5435L107.5 22.2162ZM179.556 149.228L107.427 24.2624V24.3355V24.2624L35.3705 149.228H35.4436H179.556Z" fill="#EBEBEB"/>
<path d="M107.5 24.3355L179.556 149.228H35.3705H179.483L107.427 24.3355H107.5Z" fill="#EBEBEB"/>
<path d="M107.427 22.1431L107.5 22.2162L33.5435 150.398H33.4705L107.427 22.1431Z" fill="#EBEBEB"/>
<path d="M107.427 24.3355L35.3705 149.228H35.2974L107.427 24.3355Z" fill="#EBEBEB"/>
<path d="M137.317 104.138C140.167 109.254 140.02 115.758 136.293 120.727C131.251 127.451 121.751 128.766 115.1 123.797L115.246 123.578C115.685 123.797 116.197 124.016 116.635 124.235C122.993 128.035 131.324 126.501 135.855 120.435C139.509 115.539 139.655 109.108 136.732 104.211L137.317 104.138Z" fill="#EBEBEB"/>
<path d="M136.659 104.138C139.582 109.108 139.436 115.539 135.782 120.362C131.251 126.428 122.92 127.962 116.562 124.162C122.774 126.72 130.155 124.82 134.393 119.193C137.755 114.735 138.267 109.108 136.22 104.285L136.659 104.138Z" fill="#EBEBEB"/>
<path d="M136.293 104.285C138.267 109.035 137.755 114.735 134.466 119.193C130.228 124.82 122.847 126.72 116.635 124.162C116.197 123.943 115.758 123.651 115.393 123.285C114.735 122.847 114.077 122.408 113.419 122.043L113.566 121.824C120.07 126.647 129.205 125.331 134.101 118.9C137.39 114.516 137.828 108.815 135.782 104.138H136.366C136.22 104.138 136.22 104.211 136.293 104.285Z" fill="#EBEBEB"/>
<path d="M115.32 123.285C115.758 123.578 116.197 123.87 116.562 124.162C116.05 123.943 115.612 123.724 115.173 123.504L115.32 123.285Z" fill="#EBEBEB"/>
<path d="M115.32 123.285L115.173 123.504C114.516 123.139 113.858 122.701 113.2 122.262L113.346 122.116C114.004 122.408 114.662 122.847 115.32 123.285Z" fill="#EBEBEB"/>
<path d="M115.173 123.504L115.027 123.724C108.523 118.9 99.3882 120.216 94.4919 126.647C91.861 130.155 91.0571 134.539 91.861 138.486C91.7148 138.193 91.5687 137.828 91.4225 137.536C90.7648 133.662 91.6418 129.643 94.0534 126.355C98.1458 120.727 105.892 118.754 112.25 121.604C112.543 121.824 112.835 122.043 113.127 122.262C113.858 122.701 114.516 123.139 115.173 123.504Z" fill="#EBEBEB"/>
<path d="M113.493 121.824L113.346 122.043C112.981 121.897 112.689 121.677 112.323 121.531C105.819 117.073 96.8304 118.827 92.6649 125.112C90.2533 128.839 89.9609 133.443 91.4956 137.463C91.861 139.509 92.5918 141.482 93.7611 143.236C89.084 138.266 88.3532 130.447 92.2995 124.747C96.9766 118.097 106.769 116.562 113.493 121.824Z" fill="#EBEBEB"/>
<path d="M113.346 122.043L113.2 122.189C112.908 121.97 112.616 121.751 112.323 121.531C112.689 121.677 112.981 121.897 113.346 122.043Z" fill="#EBEBEB"/>
<path d="M112.323 121.531C105.965 118.754 98.219 120.654 94.1265 126.281C91.7149 129.57 90.911 133.663 91.4956 137.463C89.961 133.443 90.2533 128.766 92.6649 125.112C96.8305 118.9 105.819 117.073 112.323 121.531Z" fill="#EBEBEB"/>
<path d="M97.9266 144.99C97.6343 145.355 97.2689 145.648 96.9766 145.94C95.9535 145.355 95.0765 144.624 94.2726 143.821C93.7611 143.017 93.2495 142.213 92.8841 141.409C92.4456 140.459 92.1533 139.509 91.9341 138.486C93.1034 141.117 95.1496 143.455 97.9266 144.99Z" fill="#EBEBEB"/>
<path d="M97.4151 147.182C97.1959 147.036 96.9766 146.963 96.7574 146.817C95.515 145.794 94.565 144.624 93.7611 143.382C93.9073 143.528 94.0534 143.747 94.2727 143.894C95.0765 145.063 96.1727 146.232 97.4151 147.182Z" fill="#EBEBEB"/>
<path d="M94.1996 143.821C94.0534 143.674 93.8342 143.455 93.688 143.309C92.5187 141.555 91.7879 139.509 91.4225 137.536C91.5687 137.901 91.6418 138.193 91.861 138.486C92.0803 139.509 92.3726 140.459 92.8111 141.409C93.2495 142.286 93.688 143.09 94.1996 143.821Z" fill="#EBEBEB"/>
<path d="M101.215 147.475C96.6842 146.817 92.811 143.601 91.2033 139.07C91.0571 138.632 90.9109 138.266 90.7648 137.828C92.0802 143.09 96.1727 147.036 101.215 147.84C101.654 147.913 108.377 148.863 112.396 143.747C115.539 139.801 114.735 135.051 114.589 134.32C114.589 134.832 114.662 135.782 114.516 136.878C114.516 137.024 114.516 137.17 114.516 137.316C114.296 139.728 113.419 141.847 112.104 143.528C109.546 146.671 105.088 148.059 101.215 147.475Z" fill="#EBEBEB"/>
<path d="M91.2033 139.07C92.8841 143.601 96.6842 146.817 101.215 147.475C105.088 148.059 109.546 146.671 112.031 143.528C113.419 141.847 114.296 139.728 114.443 137.316C114.443 137.17 114.443 137.024 114.443 136.878C114.223 138.34 113.712 140.167 112.396 141.774C108.596 146.744 101.946 145.94 101.215 145.867C96.5381 145.063 92.5918 141.92 90.6917 137.755C90.911 138.266 91.0571 138.705 91.2033 139.07Z" fill="#EBEBEB"/>
<path d="M90.7648 137.901C92.6648 141.994 96.5381 145.209 101.288 146.013C102.019 146.159 108.742 146.89 112.469 141.92C113.712 140.24 114.296 138.486 114.516 137.024C114.516 136.513 114.516 136.001 114.589 135.489V135.563C114.004 142.213 108.085 146.671 101.361 145.574C96.7573 144.844 92.9572 141.628 91.1302 137.609L90.7648 137.901Z" fill="#EBEBEB"/>
<path d="M114.516 135.416C114.516 135.928 114.516 136.439 114.443 136.951C114.589 135.782 114.589 134.905 114.516 134.393C114.589 134.759 114.589 135.051 114.516 135.416Z" fill="#EBEBEB"/>
<path d="M73.5181 150.398H141.409V82.5068H73.5181V150.398ZM74.5412 83.603H140.313V149.375H74.5412V83.603Z" fill="#EBEBEB"/>
<path d="M107.354 19.22C82.9453 19.293 60.9484 29.2318 44.944 45.2363C44.944 45.2363 44.944 45.2363 44.8709 45.3093C43.9209 46.2594 42.9708 47.2094 42.0939 48.2325C38.586 52.1057 35.3705 56.3444 32.5935 60.8022C32.155 61.533 31.7166 62.2638 31.2781 62.9946C23.6047 76.1489 19.22 91.4225 19.22 107.719C19.2931 156.463 58.9021 195.926 107.719 195.853C156.463 195.78 195.926 156.171 195.853 107.354C195.707 58.5367 156.098 19.1469 107.354 19.22ZM107.719 192.857C60.583 192.93 22.2893 154.856 22.2162 107.719C22.2162 103.408 22.5086 99.169 23.1663 95.0034C23.1663 94.7842 23.2393 94.565 23.2393 94.3457C23.3855 93.1764 23.6047 92.0072 23.824 90.911C24.1894 89.2302 24.5548 87.4762 24.9933 85.8685C25.2856 84.9185 25.5048 83.8953 25.7971 82.9453C25.9433 82.5068 26.0164 82.1414 26.1625 81.703C26.6741 80.1683 27.1856 78.6336 27.7703 77.172C27.9895 76.6605 28.1357 76.1489 28.3549 75.6374C28.6472 74.9066 28.9395 74.1758 29.3049 73.445C29.8165 72.2026 30.4011 71.0333 30.9858 69.791C31.5704 68.6217 32.2281 67.3794 32.8858 66.2101C34.2744 63.6523 35.809 61.1676 37.4899 58.8291C38.0745 57.9521 38.7322 57.0752 39.3168 56.2713C54.8828 35.6628 79.5106 22.2893 107.354 22.2162C154.49 22.1431 192.784 60.2176 192.857 107.354C192.93 154.49 154.856 192.784 107.719 192.857Z" fill="#EBEBEB"/>
<path d="M107.281 -9.49377e-05C47.9401 0.146064 -0.146254 48.3786 -9.49377e-05 107.719C0.146064 167.06 48.3786 215.146 107.719 215C167.06 214.854 215.146 166.621 215 107.281C214.927 47.9401 166.694 -0.146254 107.281 -9.49377e-05ZM107.719 213.319C49.2555 213.465 1.75381 166.183 1.68073 107.719C1.53458 49.2555 48.817 1.82689 107.281 1.68073C165.744 1.53458 213.246 48.817 213.319 107.281C213.392 165.744 166.183 213.246 107.719 213.319Z" fill="#EBEBEB"/>
<path d="M136.22 100.777C135.709 99.8267 135.197 98.9497 134.539 98.0728C133.078 95.8804 131.324 93.9072 129.351 92.1533C128.985 91.7879 128.547 91.4225 128.182 91.1302C127.378 90.4725 126.501 89.8148 125.624 89.2301C125.185 88.9378 124.747 88.6455 124.308 88.3532C123.431 87.8416 122.481 87.3301 121.531 86.8185C117.22 84.7723 112.396 83.603 107.281 83.603C89.1571 83.6761 74.4681 98.3651 74.5412 116.489C74.5412 117.585 74.6142 118.754 74.6873 119.85C74.8335 121.531 75.1258 123.139 75.5643 124.674C75.8566 125.697 76.1489 126.72 76.5143 127.743C76.8797 128.766 77.3182 129.716 77.7567 130.666C78.7067 132.566 79.8029 134.393 81.0452 136.074C81.9953 137.316 83.0184 138.559 84.1146 139.655C86.38 141.847 88.8648 143.747 91.7149 145.282C93.5418 146.305 95.515 147.109 97.6343 147.767C98.6574 148.059 99.6805 148.351 100.777 148.571C102.896 149.009 105.161 149.228 107.354 149.228C111.885 149.228 116.196 148.278 120.143 146.598C121.093 146.159 122.043 145.721 122.993 145.209C123.943 144.698 124.82 144.186 125.697 143.528C127.889 142.067 129.862 140.313 131.616 138.34C131.982 137.974 132.347 137.536 132.639 137.17C133.297 136.366 133.955 135.489 134.539 134.613C134.832 134.174 135.124 133.736 135.416 133.297C135.928 132.42 136.44 131.47 136.951 130.52C138.997 126.208 140.167 121.385 140.167 116.27C140.167 111.739 139.217 107.427 137.536 103.481C137.17 102.677 136.732 101.727 136.22 100.777ZM107.354 85.7954C116.927 85.7954 125.478 90.1802 131.105 97.0497C130.885 97.4881 130.447 97.8535 129.935 97.8535L84.9915 98.0728C84.4069 98.0728 83.8223 97.6343 83.6761 97.0497C89.3032 90.1802 97.7805 85.7954 107.354 85.7954ZM137.828 125.405C137.828 125.405 137.828 125.331 137.901 125.258C137.828 125.331 137.828 125.331 137.828 125.405ZM107.427 147.109C90.4725 147.109 76.7336 133.443 76.6605 116.489C76.6605 111.3 77.9028 106.477 80.1683 102.165C81.2645 100.704 83.0184 99.8267 84.8454 99.8267L104.796 99.7536H104.869C105.381 99.8267 105.673 99.8267 105.892 99.9728C106.185 100.119 106.404 100.484 106.404 100.85L106.331 117.073C106.331 118.243 105.454 119.266 104.285 119.412C103.042 119.631 106.55 119.412 106.696 119.412H107.573C107.719 119.412 109.4 119.997 109.181 119.777C109.108 119.704 109.108 119.704 109.035 119.631C109.181 119.704 109.327 119.704 109.473 119.777C110.204 119.997 110.716 120.216 110.716 120.143C110.789 119.997 108.742 119.339 108.304 117.731C108.231 117.366 108.231 117.073 108.231 116.927C108.231 112.177 108.304 107.354 108.304 102.604C108.304 102.238 108.304 101.069 109.181 100.411C109.254 100.338 109.546 100.119 110.496 99.8998C111.3 99.7536 111.885 99.6805 112.396 99.6805H129.132C129.862 99.6805 131.324 99.8267 132.712 100.777C133.297 101.215 134.101 101.873 135.051 103.7C136.732 107.062 136.732 110.058 136.805 110.058C136.805 110.058 136.805 109.181 136.732 107.865C137.536 110.569 137.901 113.346 137.901 116.27C138.12 133.37 124.381 147.109 107.427 147.109ZM138.413 123.139C138.413 123.212 138.34 123.285 138.34 123.431C138.34 123.285 138.413 123.212 138.413 123.139ZM139.07 117.439C139.07 117.073 139.07 116.781 139.07 116.416C139.07 112.031 138.193 107.865 136.586 104.065C138.193 107.865 139.07 112.031 139.07 116.416C139.143 116.708 139.07 117.073 139.07 117.439Z" fill="#EBEBEB"/>
<path d="M22.07 55.1751C22.3623 55.3212 22.5816 55.4674 22.8739 55.4674C23.1662 55.4674 23.4585 55.4674 23.6778 55.3943C23.9701 55.3212 24.1893 55.1751 24.4086 54.9558C24.6278 54.7366 24.8471 54.5174 24.9932 54.2981C25.1394 54.0789 25.2855 53.7866 25.3586 53.5673C25.4317 53.275 25.5778 53.0558 25.724 52.8365C25.724 52.8365 25.8702 52.8365 26.0163 52.9827C26.2356 53.0558 26.4548 53.2019 26.7471 53.4212C27.0394 53.5673 27.3318 53.7866 27.6241 53.9327C27.9164 54.152 28.1356 54.2981 28.3549 54.3712L28.7203 54.5904L29.3049 54.9558C29.378 54.9558 29.378 55.0289 29.4511 55.102C29.5241 55.1751 29.5972 55.1751 29.6703 55.2481C29.7434 55.3212 29.8165 55.3943 29.8895 55.4674V55.5405C29.8895 55.5405 29.8165 55.5405 29.7434 55.5405C29.6703 55.5405 29.5241 55.4674 29.378 55.4674C29.2318 55.4674 29.0857 55.3943 29.0126 55.3943C28.8664 55.3943 28.7933 55.3212 28.7933 55.3212C28.2087 55.1751 27.6972 55.2482 27.2587 55.3943C26.8202 55.5405 26.3817 55.9059 26.0894 56.4174C25.8702 56.7828 25.724 57.1482 25.5778 57.5867C25.5048 58.0252 25.4317 58.4637 25.5048 58.829C25.5778 59.2675 25.724 59.6329 25.8702 59.9983C26.0894 60.3637 26.3817 60.656 26.7471 60.8753C27.1856 61.1676 27.6241 61.3138 28.0626 61.3138C28.501 61.3138 28.9395 61.2407 29.3049 61.0945C29.6703 60.9484 30.0357 60.656 30.4011 60.3637C30.7665 60.0714 30.9857 59.706 31.278 59.3406C31.9358 58.3906 32.155 57.2944 32.0088 56.1251C32.0088 55.9789 32.0088 55.8328 31.9358 55.6866C31.9358 55.5405 31.8627 55.4674 31.7165 55.3943L31.7896 55.5405C31.8627 56.1251 31.8627 56.6367 31.7165 57.2213C31.5704 57.8059 31.3511 58.3175 30.9857 58.829C30.7665 59.1944 30.5473 59.4868 30.2549 59.8522C29.9626 60.2176 29.6703 60.5099 29.3049 60.7291C28.9395 60.9484 28.5741 61.0945 28.2087 61.0945C27.8433 61.0945 27.4048 61.0214 26.9664 60.7291C26.8202 60.656 26.674 60.5099 26.5279 60.2906C26.3817 60.1445 26.2356 59.9252 26.1625 59.706C26.0894 59.4868 26.0163 59.2675 26.0163 59.0483C26.0163 58.8291 26.0894 58.6098 26.1625 58.4637C26.3086 58.3175 26.3817 58.1713 26.601 58.0983C26.7471 58.0252 26.9664 57.9521 27.1856 57.879C27.4048 57.8059 27.551 57.8059 27.7702 57.8059C27.9895 57.8059 28.1356 57.7329 28.3549 57.7329C28.8664 57.5867 29.2318 57.3675 29.6703 57.0021C30.0357 56.6367 30.4011 56.2713 30.6203 55.8328C30.9127 55.4674 31.0588 54.9558 31.205 54.4443C31.3511 53.9327 31.4242 53.4212 31.3511 52.9096C31.3511 52.398 31.205 51.8865 30.9857 51.448C30.7665 51.0095 30.4742 50.5711 29.9626 50.2787C29.6703 50.0595 29.3049 49.9133 28.9395 49.8403C28.5741 49.7672 28.2087 49.6941 27.9164 49.7672C27.551 49.7672 27.2587 49.9133 26.9664 50.0595C26.674 50.2057 26.3817 50.498 26.1625 50.7903C26.0163 51.0095 25.9432 51.2288 25.8702 51.448C25.7971 51.6672 25.724 51.8865 25.5778 52.1057V52.1788C25.5048 52.1788 25.4317 52.1057 25.2855 52.0326C25.1394 51.9596 24.9932 51.8865 24.8471 51.7403C24.7009 51.6673 24.5547 51.5211 24.4086 51.448C24.2624 51.3749 24.1893 51.3018 24.1163 51.2288L23.897 51.0826C23.897 51.0826 23.8239 51.0826 23.8239 51.0095C23.7509 51.0095 23.7509 50.9365 23.6778 50.9365C23.5316 50.8634 23.4585 50.7903 23.4585 50.7172C23.4585 50.6441 23.4585 50.5711 23.5316 50.498L23.6047 50.3518C23.9701 49.8403 24.1163 49.2556 24.1893 48.671C24.1893 48.0863 24.1163 47.5017 23.897 46.9171C23.8239 46.7709 23.8239 46.6978 23.7509 46.6248C23.6778 46.5517 23.6047 46.4786 23.4585 46.4055C23.4585 46.4055 23.4585 46.4786 23.4585 46.6248C23.4585 46.6978 23.5316 46.844 23.5316 46.9902C23.5316 47.1363 23.6047 47.2094 23.6047 47.3556C23.6047 47.5017 23.6047 47.5748 23.6047 47.6479L23.3855 47.9402C23.2393 48.1594 23.0931 48.3056 22.8739 48.4517C22.6547 48.5248 22.5085 48.5979 22.2893 48.5979C22.1431 48.5979 21.9969 48.5979 21.8508 48.5979C21.7046 48.5979 21.6316 48.5979 21.6316 48.5979C21.7046 48.8902 21.7777 49.1825 21.8508 49.4749C21.9239 49.7672 21.9239 50.0595 21.8508 50.3518C21.7777 50.7172 21.7046 51.1557 21.5585 51.5942C21.4123 52.0326 21.3392 52.4711 21.3392 52.9096C21.3392 53.3481 21.3392 53.7866 21.4854 54.152C21.4123 54.5904 21.7046 54.9558 22.07 55.1751ZM26.0163 52.1057C26.1625 51.8134 26.3817 51.7403 26.674 51.6672C26.9664 51.6672 27.2587 51.6673 27.551 51.7403C27.8433 51.8134 28.1356 51.9596 28.4279 52.1057C28.7203 52.2519 28.9395 52.398 29.0857 52.5442C29.2318 52.6904 29.4511 52.8365 29.7434 52.9827C29.9626 53.2019 30.2549 53.3481 30.4011 53.6404C30.5473 53.9327 30.7665 54.152 30.8396 54.3712C30.9127 54.6635 30.8396 54.8828 30.6934 55.1751L30.6203 55.3212L30.4011 55.3943L26.3086 52.6904C26.1625 52.6173 26.0894 52.5442 26.0163 52.398C25.9432 52.2519 25.9432 52.1788 26.0163 52.1057ZM21.8508 51.3018C21.8508 51.2288 21.9239 51.2288 22.07 51.1557C22.2162 51.0826 22.2893 51.0826 22.4354 51.0095C22.5816 50.9365 22.7277 50.9365 22.8008 50.9365C22.947 50.9365 23.0201 50.9365 23.0931 51.0095L25.4317 52.5442C25.5048 52.6173 25.5048 52.6904 25.4317 52.7634C25.3586 52.8365 25.3586 52.9827 25.2855 53.0558C25.1394 53.275 24.9932 53.3481 24.774 53.4212C24.5547 53.4942 24.3355 53.4942 24.1163 53.4942C23.897 53.4942 23.6778 53.4212 23.4585 53.3481C23.2393 53.275 23.0201 53.2019 22.8739 53.0558C22.8008 52.9827 22.6547 52.9096 22.5085 52.7634C22.3623 52.6173 22.2162 52.4711 22.07 52.325C21.9239 52.1788 21.7777 51.9596 21.7046 51.8134C21.7777 51.5942 21.7777 51.448 21.8508 51.3018Z" fill="#EBEBEB"/>
<path d="M43.6285 29.4511C43.6285 29.378 43.7016 29.3049 43.7016 29.2318C43.7016 29.1588 43.7747 29.0857 43.7747 29.0126C43.7747 28.9395 43.7747 28.9395 43.8478 28.9395C43.9939 28.8664 44.067 28.8664 44.2132 28.9395C44.3593 29.0126 44.5055 29.1588 44.6516 29.3049C44.7978 29.4511 44.944 29.6703 45.0901 29.8165C45.2363 30.0357 45.3824 30.1819 45.5286 30.328L47.0633 32.3012L47.1363 32.5204C47.0633 32.8127 47.0633 33.1781 47.0633 33.5435C47.0633 33.9089 47.2094 34.2012 47.4287 34.4936C47.5017 34.5666 47.5017 34.5666 47.5017 34.4936C47.5017 34.4205 47.5017 34.3474 47.5017 34.2012C47.5017 34.0551 47.5017 33.9089 47.5017 33.7628C47.5017 33.6166 47.5748 33.5435 47.6479 33.4704C47.6479 33.4704 47.721 33.3974 47.7941 33.3974C47.8671 33.3974 47.8671 33.3974 47.9402 33.4704L49.9134 36.1013H49.9864C49.9864 36.1013 50.0595 35.9551 50.0595 35.809C50.0595 35.5898 50.1326 35.4436 50.1326 35.1513C50.1326 34.932 50.2057 34.6397 50.2057 34.4205C50.2057 34.2012 50.2788 33.982 50.2788 33.8358C50.2057 33.6166 50.0595 33.4704 49.9134 33.2512C49.7672 33.105 49.621 32.8858 49.548 32.6666C49.548 32.5935 49.548 32.5935 49.548 32.5935L49.621 32.5204L50.0595 32.5935L50.1326 32.5204C50.1326 32.0819 50.2788 31.7165 50.4249 31.4242C50.5711 31.1319 50.7172 30.7665 50.8634 30.328C51.0096 29.9626 51.0096 29.5242 50.8634 29.1588C50.7172 28.7934 50.498 28.428 50.2057 28.0626C50.1326 27.9164 49.9864 27.7702 49.9134 27.6241C49.8403 27.4779 49.6941 27.4048 49.621 27.2587C49.548 27.1125 49.4018 27.0395 49.3287 26.8933C49.2556 26.7471 49.1095 26.601 49.0364 26.5279C48.8172 26.2356 48.5248 25.8702 48.2325 25.6509C47.9402 25.3586 47.5748 25.2125 47.1363 25.2125C47.0633 25.2125 46.9902 25.2125 46.9171 25.2125C46.844 25.2125 46.7709 25.2125 46.6979 25.2125C46.6248 25.2125 46.5517 25.2125 46.4786 25.2125C46.4055 25.2125 46.4055 25.2125 46.4055 25.2125C46.3325 25.6509 46.2594 26.0894 46.1863 26.3817C46.1132 26.7471 45.9671 27.1125 45.894 27.551L45.8209 27.6241C45.8209 27.6241 45.7478 27.6241 45.5286 27.551C45.3824 27.4779 45.1632 27.4048 45.017 27.3318C44.7978 27.2587 44.6516 27.1856 44.4324 27.1125C44.1401 27.0394 44.067 27.0395 43.9939 27.0395C43.9208 27.4048 43.7747 27.8433 43.7016 28.2087C43.5554 28.5741 43.4824 28.9395 43.4824 29.378L43.5554 29.4511C43.5554 29.5242 43.6285 29.5242 43.6285 29.4511ZM46.3325 27.1125C46.4786 26.9664 46.6979 26.9664 46.844 27.0395C47.0633 27.1125 47.2094 27.2587 47.4287 27.4048C47.6479 27.551 47.7941 27.7702 47.9402 27.9164C48.0864 28.1356 48.2325 28.2087 48.2325 28.2818C48.5248 28.7203 48.8172 29.0857 49.1095 29.5242C49.4018 29.8896 49.6941 30.328 49.9864 30.8396V30.9127L49.9134 30.9857C49.8403 30.9857 49.7672 31.0588 49.621 31.0588C49.4749 31.0588 49.2556 31.0588 49.1095 31.0588C48.9633 31.0588 48.7441 31.0588 48.5979 31.0588C48.4518 31.0588 48.3056 31.0588 48.3056 31.0588C48.3056 31.0588 48.2325 30.9857 48.2325 30.9127C48.1595 30.8396 48.1595 30.7665 48.0864 30.6934C48.0133 30.6203 48.0133 30.5473 47.9402 30.4742C47.8671 30.4011 47.8671 30.4011 47.8671 30.328L47.7941 30.2549C47.5748 29.9626 47.3556 29.6703 47.1363 29.378C46.9171 29.0857 46.6979 28.7934 46.4786 28.501C46.2594 28.2087 46.1863 27.9164 46.1132 27.6972C46.0401 27.4779 46.1132 27.2587 46.3325 27.1125Z" fill="#EBEBEB"/>
<path d="M70.5948 13.2274C70.8141 13.3005 71.0333 13.3005 71.3256 13.1543C71.5449 13.0813 71.691 12.862 71.7641 12.6428C71.8372 12.4235 71.8372 12.2043 71.691 11.9851C71.618 11.7658 71.3987 11.5466 71.1795 11.4735C70.9602 11.4004 70.741 11.4004 70.4487 11.4735C70.1564 11.6197 70.0102 11.7658 69.9371 11.9851C69.8641 12.2043 69.9371 12.4235 70.0102 12.7159C70.2295 13.0082 70.3756 13.1543 70.5948 13.2274Z" fill="#EBEBEB"/>
<path d="M71.3987 13.9582C71.2526 14.0313 71.1064 14.1774 71.0333 14.3967C70.8872 14.6159 70.8141 14.9082 70.6679 15.2005C70.5948 15.4929 70.4487 15.7121 70.4487 16.0044C70.3756 16.2237 70.3756 16.3698 70.3756 16.4429C70.5218 16.3698 70.5948 16.2967 70.5948 16.1506C70.5948 16.0044 70.6679 15.9313 70.8141 15.8583C70.8872 15.7852 71.0333 15.8583 71.1064 15.9313C71.2526 16.0044 71.3256 16.0775 71.3987 16.1506C71.4718 16.2237 71.5449 16.4429 71.691 16.7352C71.8372 17.0275 71.9103 17.2468 72.0564 17.6122C72.2026 17.9045 72.3488 18.1968 72.4949 18.4891C72.6411 18.7814 72.7872 19.0738 72.8603 19.293L73.0065 19.6584C73.1526 19.9507 73.2988 20.243 73.3719 20.3892C73.445 20.6084 73.5911 20.7546 73.7373 20.9007C73.8834 21.0469 74.0296 21.12 74.2488 21.2661C74.4681 21.3392 74.6873 21.4123 75.0527 21.4854H75.1258C75.1258 21.4854 75.1989 21.4123 75.2719 21.1931C75.345 20.9738 75.4181 20.7546 75.5643 20.4623C75.6373 20.17 75.7835 19.9507 75.8566 19.7315C75.9297 19.5122 75.9297 19.3661 75.9297 19.3661H75.8566C75.8566 19.3661 75.7835 19.4392 75.7104 19.5122C75.6373 19.5853 75.5643 19.6584 75.5643 19.6584C75.4912 19.7315 75.345 19.6584 75.2719 19.5853C75.1989 19.5122 75.0527 19.4392 74.9796 19.293C74.9065 19.1468 74.7604 19.0007 74.6873 18.8545C74.6142 18.7084 74.5411 18.5622 74.4681 18.416L74.3219 18.1968L73.6642 16.7352C73.5911 16.516 73.445 16.2237 73.3719 16.0044C73.2988 15.7852 73.1526 15.4929 73.0796 15.2736C73.0796 15.1275 73.0796 14.9082 73.1526 14.7621C73.2257 14.6159 73.2257 14.3967 73.2988 14.2505L73.2257 14.0313L72.8603 14.6159C72.8603 14.6159 72.7872 14.6159 72.6411 14.4697C72.4949 14.3967 72.4218 14.2505 72.2757 14.1774C72.1295 14.1043 71.9834 14.0313 71.8372 13.9582C71.618 13.8851 71.5449 13.8851 71.3987 13.9582Z" fill="#EBEBEB"/>
<path d="M95.3688 8.91573C95.4419 8.76957 95.5149 8.76957 95.6611 8.6965C95.7342 8.6965 95.8073 8.6965 95.8803 8.76957C95.9534 8.84265 96.0265 8.91573 96.0265 8.98881C96.0996 9.06189 96.0996 9.13497 96.0996 9.28113C96.0996 9.35421 96.1727 9.42729 96.1727 9.50037L96.5381 13.1543C96.5381 13.3005 96.5381 13.3736 96.465 13.5197C96.3919 13.6659 96.3188 13.739 96.2457 13.8851C96.1727 14.0313 96.0996 14.1044 96.0265 14.1775C95.9534 14.2505 95.8804 14.3967 95.9534 14.4698H96.0996L96.7573 13.8121H96.8304C97.0496 14.1044 97.1958 14.3236 97.3419 14.4698C97.4881 14.6159 97.7073 14.8352 97.9997 15.0544C98.0727 15.0544 98.0727 15.1275 98.2189 15.2006C98.292 15.2737 98.3651 15.2737 98.3651 15.2737H98.4381L100.338 13.0813C100.338 13.0082 100.338 12.9351 100.338 12.9351V12.862C100.265 12.862 100.192 12.9351 100.119 12.9351C100.046 13.0082 99.9728 13.0813 99.8997 13.1543C99.8266 13.2274 99.7536 13.3005 99.7536 13.3736C99.6805 13.4467 99.6805 13.5197 99.6074 13.5197H99.242C99.1689 13.5197 99.0958 13.5197 99.0228 13.4467C98.9497 13.3736 98.8766 13.3005 98.8035 13.2274C98.7304 13.1543 98.6574 13.0813 98.5843 12.9351C98.5112 12.862 98.5112 12.7889 98.5112 12.7159L98.1458 9.13497C98.1458 9.13497 98.1458 9.13497 98.2189 9.13497H98.292C98.3651 9.13497 98.5112 9.13497 98.5843 9.13497C98.6574 9.13497 98.8035 9.13497 98.9497 9.13497C99.1689 9.13497 99.3882 9.06189 99.6074 8.91573C99.8266 8.76957 99.9728 8.62342 100.046 8.40418C100.192 8.18494 100.265 7.9657 100.265 7.74646C100.338 7.52722 100.338 7.23491 100.265 7.01567V6.94259C100.265 6.86951 100.265 6.86951 100.192 6.86951C100.119 7.08875 100.046 7.23491 99.9728 7.38106C99.8997 7.52722 99.7536 7.52722 99.5343 7.6003C99.3882 7.6003 99.242 7.6003 99.1689 7.52722C99.0958 7.45414 99.0228 7.38106 98.9497 7.2349C98.8766 7.2349 98.8035 7.30798 98.7305 7.45414C98.6574 7.6003 98.5843 7.74646 98.5112 7.89262C98.4381 8.03878 98.3651 8.18494 98.292 8.3311C98.2189 8.47726 98.1458 8.55034 98.0727 8.55034C97.9997 8.55034 97.9266 8.47726 97.8535 8.40418C97.7804 8.25802 97.6343 8.11186 97.5612 7.9657C97.4881 7.81954 97.3419 7.67338 97.1958 7.52722C97.0496 7.38106 96.9765 7.38106 96.8304 7.38106C96.8304 7.38106 96.7573 7.45414 96.6842 7.52722C96.6111 7.6003 96.5381 7.67338 96.465 7.74646C96.3919 7.81954 96.3188 7.89262 96.2457 8.03878C96.1727 8.11186 96.1727 8.18494 96.1727 8.18494C96.0996 8.25802 96.0265 8.3311 95.8803 8.40418C95.7342 8.47726 95.6611 8.55034 95.588 8.6965C95.515 8.76957 95.3688 8.91573 95.3688 8.98881C95.2957 9.13497 95.2957 9.20805 95.2957 9.35421C95.2226 9.06189 95.2957 8.98881 95.3688 8.91573Z" fill="#EBEBEB"/>
<path d="M124.747 7.8926C125.039 7.96568 125.258 7.8926 125.405 7.67337C125.551 7.52721 125.697 7.30797 125.697 7.08873C125.77 6.79641 125.697 6.57717 125.551 6.35793C125.405 6.1387 125.258 6.06562 124.966 5.99254C124.674 5.91946 124.381 5.99254 124.235 6.1387C124.089 6.28485 123.943 6.50409 123.943 6.79641C123.87 7.08873 123.943 7.30797 124.089 7.52721C124.308 7.74645 124.528 7.8926 124.747 7.8926Z" fill="#EBEBEB"/>
<path d="M122.92 9.86574C122.993 9.86574 123.066 9.93882 123.139 10.085C123.212 10.2311 123.212 10.3042 123.212 10.4504C123.212 10.5965 123.212 10.7427 123.139 11.035C123.066 11.3273 123.066 11.6197 122.993 11.9851C122.92 12.3504 122.92 12.6428 122.847 13.0082C122.774 13.3736 122.774 13.5928 122.701 13.8851L122.627 14.3236C122.554 14.689 122.554 14.9082 122.554 15.1275C122.554 15.3467 122.554 15.5659 122.627 15.7852C122.701 16.0044 122.774 16.1506 122.92 16.3698C123.066 16.5891 123.212 16.7352 123.431 17.0275H123.504C123.504 17.0275 123.578 16.9545 123.797 16.8083C124.016 16.6621 124.162 16.516 124.381 16.3698C124.601 16.2237 124.82 16.0775 124.966 15.9313C125.185 15.7852 125.258 15.7121 125.258 15.639H125.185C125.185 15.639 125.112 15.639 125.039 15.7121C124.966 15.7852 124.893 15.7852 124.82 15.7852C124.674 15.7852 124.601 15.7121 124.601 15.5659C124.528 15.4198 124.528 15.2736 124.528 15.1275C124.528 14.9813 124.528 14.7621 124.528 14.6159C124.528 14.4698 124.601 14.2505 124.601 14.1774L124.674 13.8851L124.893 12.2774C124.966 11.9851 124.966 11.7658 125.039 11.4735C125.112 11.1812 125.112 10.9619 125.185 10.6696C125.258 10.5235 125.405 10.3773 125.551 10.2311C125.697 10.085 125.843 10.0119 125.916 9.86574V9.64651L125.258 10.0119C125.258 10.0119 125.185 9.93882 125.185 9.79266C125.112 9.64651 125.112 9.50035 125.039 9.35419C124.966 9.20803 124.893 9.06187 124.82 8.91571C124.747 8.76955 124.601 8.69647 124.528 8.69647H124.454C124.381 8.69647 124.162 8.76955 123.943 8.91571C123.724 9.06187 123.504 9.20803 123.212 9.42727C122.993 9.57343 122.774 9.79267 122.554 9.93882C122.335 10.085 122.262 10.2311 122.262 10.3042C122.408 10.3042 122.481 10.3042 122.554 10.1581C122.701 9.86574 122.774 9.79267 122.92 9.86574Z" fill="#EBEBEB"/>
<path d="M144.405 22.3623C144.551 22.5085 144.624 22.6547 144.697 22.8739C144.771 23.0201 144.771 23.2393 144.844 23.3855C144.917 23.5316 144.917 23.6778 144.99 23.8239C145.063 23.9701 145.136 24.0432 145.136 24.0432L145.209 24.1162C145.209 24.1162 145.355 24.1162 145.574 24.0432C145.794 23.9701 146.086 23.897 146.305 23.7508C146.598 23.6778 146.817 23.5316 147.036 23.4585C147.255 23.3855 147.401 23.3124 147.474 23.2393V23.1662L147.401 23.0931H147.328C147.328 23.0931 147.255 23.0931 147.109 23.1662C146.963 23.2393 146.89 23.2393 146.817 23.1662C146.671 23.0931 146.598 22.947 146.524 22.7277C146.451 22.5085 146.451 22.2893 146.524 22.1431L148.351 17.7583C148.351 17.6852 148.425 17.6852 148.571 17.6852C148.717 17.6852 148.79 17.6852 148.936 17.7583C149.009 17.8314 149.082 17.8314 149.155 17.9045L149.228 17.8314C149.301 17.7583 149.301 17.6852 149.301 17.6852C149.375 17.466 149.375 17.3198 149.301 17.2468C149.228 17.1737 149.082 17.1006 148.936 17.0275C148.79 16.9545 148.79 16.8814 148.717 16.8083C148.717 16.7352 148.717 16.6621 148.717 16.516C148.717 16.4429 148.79 16.2967 148.79 16.2237C148.863 16.1506 148.863 16.0044 148.936 15.9313C149.082 15.639 149.155 15.4198 149.301 15.1275C149.448 14.8351 149.594 14.6159 149.813 14.3967C149.886 14.3236 150.032 14.2505 150.105 14.2505C150.252 14.2505 150.325 14.1774 150.398 14.0313C150.252 13.9582 150.178 13.9582 150.032 13.9582C149.886 13.9582 149.74 13.9582 149.594 14.0313C149.228 14.1044 148.936 14.1774 148.717 14.2505C148.498 14.3236 148.278 14.4697 148.059 14.6159C147.84 14.7621 147.694 14.9082 147.548 15.1275C147.401 15.3467 147.182 15.5659 147.036 15.8583C147.036 15.9313 146.963 15.9313 146.963 16.0044C146.89 16.0775 146.89 16.0775 146.89 16.0775L146.305 15.8583C146.305 15.8583 146.232 15.8583 146.159 16.0044C146.086 16.0775 146.086 16.1506 146.013 16.2237L145.94 16.4429C145.94 16.516 146.013 16.5891 146.086 16.5891C146.159 16.6621 146.232 16.6621 146.305 16.7352C146.378 16.8083 146.451 16.8083 146.451 16.8814C146.524 16.8814 146.524 16.9545 146.524 16.9545C146.524 16.9545 146.451 17.0275 146.451 17.1737C146.451 17.3198 146.378 17.3198 146.378 17.466C146.378 17.5391 146.305 17.6852 146.305 17.7583C146.305 17.8314 146.232 17.9045 146.232 17.9776L144.771 21.6315C144.697 21.7046 144.697 21.7046 144.624 21.7777C144.624 21.8508 144.551 21.9239 144.551 21.9239C144.478 21.9969 144.478 22.1431 144.332 22.1431C144.259 22.2162 144.186 22.2162 144.04 22.2893C143.967 22.3623 143.894 22.3623 143.747 22.4354C143.674 22.5085 143.601 22.5816 143.528 22.6547L143.674 22.7277L144.405 22.3623Z" fill="#EBEBEB"/>
<path d="M165.964 33.982C166.037 34.0551 166.11 34.1282 166.037 34.2743C166.037 34.4205 166.037 34.5667 166.037 34.7128C166.037 34.859 166.037 35.0782 166.037 35.2244C166.037 35.3705 166.11 35.5167 166.256 35.5898L166.329 35.6629C166.768 35.5898 167.133 35.5898 167.498 35.5898C167.864 35.5898 168.302 35.5898 168.741 35.5898C168.741 35.6629 168.741 35.7359 168.668 35.9552C168.668 36.1744 168.595 36.3936 168.595 36.6129C168.595 36.8321 168.595 37.0514 168.595 37.2706C168.595 37.4898 168.595 37.5629 168.668 37.636L168.741 37.7091C168.741 37.7091 168.887 37.7091 169.179 37.7091C169.398 37.7091 169.691 37.636 169.983 37.636C170.275 37.5629 170.568 37.5629 170.787 37.4898C171.006 37.4168 171.152 37.3437 171.225 37.3437C171.152 37.2706 171.006 37.2706 170.933 37.2706C170.86 37.2706 170.714 37.2706 170.641 37.1975C170.568 37.1244 170.495 37.0514 170.495 36.9783C170.495 36.9052 170.495 36.759 170.568 36.686C170.641 36.6129 170.641 36.4667 170.714 36.3936C170.787 36.3206 170.86 36.2475 170.933 36.1744L171.298 35.7359C171.372 35.6629 171.518 35.4436 171.737 35.2244C171.956 35.0051 172.175 34.7128 172.395 34.4936C172.614 34.2013 172.833 33.982 173.052 33.6897C173.272 33.4705 173.418 33.2512 173.491 33.1781C173.564 33.1051 173.71 33.032 173.856 33.032C174.002 33.032 174.149 32.9589 174.222 32.9589C174.368 32.9589 174.441 32.8858 174.587 32.8858C174.733 32.8858 174.806 32.8128 174.879 32.7397L174.733 32.6666L173.856 32.7397C173.856 32.6666 173.856 32.5204 173.856 32.3743C173.856 32.2281 173.856 32.082 173.856 31.8627C173.856 31.6435 173.856 31.5704 173.856 31.4242C173.856 31.2781 173.783 31.205 173.783 31.1319L173.71 31.0588C173.491 31.0588 173.272 31.0588 173.052 31.1319C172.833 31.205 172.614 31.1319 172.395 31.1319C172.175 31.1319 172.029 31.1319 171.81 31.1319C171.591 31.1319 171.591 31.1319 171.518 31.205L171.445 31.2781C171.518 31.3512 171.591 31.3512 171.664 31.3512C171.737 31.3512 171.81 31.3512 171.956 31.4242C172.029 31.4973 172.029 31.5704 171.956 31.7166C171.883 31.8627 171.883 31.9358 171.883 32.0089L169.398 35.0051L169.106 35.2244L168.229 35.2975L168.156 35.2244C168.01 35.1513 167.937 35.0051 167.937 34.9321C167.937 34.7859 167.937 34.7128 168.01 34.5667C168.083 34.4205 168.156 34.3474 168.229 34.2013C168.302 34.0551 168.375 33.982 168.448 33.9089C168.595 33.7628 168.741 33.5435 168.887 33.3243C169.033 33.1051 169.252 32.8858 169.471 32.5935C169.691 32.3743 169.837 32.082 170.056 31.8627C170.202 31.6435 170.422 31.4242 170.568 31.2781L170.86 30.9127C171.079 30.6204 171.152 30.328 171.225 30.0357C171.225 29.7434 171.298 29.378 171.298 29.0857L171.225 28.9395C171.225 28.9395 171.079 28.8665 170.86 28.8665C170.641 28.8665 170.348 28.8665 170.056 28.8665C169.764 28.8665 169.471 28.8665 169.252 28.9395C169.033 28.9395 168.887 28.9395 168.887 29.0126C168.814 29.0857 168.814 29.0857 168.887 29.1588C168.887 29.1588 168.96 29.2319 169.033 29.2319C169.106 29.2319 169.179 29.2319 169.179 29.2319C169.252 29.2319 169.252 29.2319 169.325 29.2319C169.398 29.3049 169.398 29.378 169.398 29.4511C169.398 29.5242 169.325 29.6703 169.325 29.7434C169.252 29.8165 169.252 29.9626 169.179 30.0357C169.106 30.1088 169.106 30.1819 169.033 30.1819L166.548 33.2512C166.475 33.3974 166.256 33.4705 166.037 33.5435C165.818 33.6166 165.598 33.6166 165.525 33.6166L165.379 33.7628L165.452 33.8359L165.964 33.982Z" fill="#EBEBEB"/>
<path d="M184.745 54.7366C184.818 54.8097 184.964 54.8097 185.037 54.8828C185.11 54.9558 185.257 54.9559 185.33 55.0289C185.403 55.102 185.476 55.1751 185.549 55.2482C185.695 55.5405 185.695 55.8328 185.622 56.052C185.549 56.2713 185.476 56.5636 185.33 56.8559V56.929C185.33 56.929 185.403 57.0021 185.476 57.0752C185.549 57.1482 185.622 57.1482 185.695 57.2213C185.768 57.2944 185.841 57.2944 185.914 57.3675C185.987 57.3675 186.061 57.4405 186.061 57.4405C186.207 57.5136 186.426 57.5867 186.572 57.8059C186.718 57.9521 186.937 58.1713 187.157 58.3175C187.376 58.4637 187.522 58.6098 187.741 58.756C187.961 58.9021 188.18 58.9752 188.399 58.9752C188.618 58.9752 188.764 58.9021 188.984 58.9021C189.13 58.8291 189.349 58.756 189.568 58.6829H189.641C189.861 58.6098 190.08 58.4637 190.226 58.3175C190.445 58.1713 190.591 58.0252 190.738 57.879C190.884 57.7329 190.957 57.5136 190.957 57.2944C191.03 57.0752 190.957 56.8559 190.884 56.6367C190.811 56.4905 190.665 56.3444 190.591 56.1982C190.445 56.1251 190.299 55.979 190.153 55.9059C190.007 55.8328 189.861 55.7597 189.788 55.6866C189.641 55.6136 189.568 55.4674 189.495 55.3943C189.422 55.3212 189.495 55.1751 189.568 55.102C189.641 54.9559 189.715 54.8828 189.861 54.8828L191.322 54.2251C191.395 54.2251 191.395 54.2251 191.395 54.3712C191.395 54.4443 191.395 54.5905 191.395 54.7366C191.395 54.8828 191.395 55.0289 191.395 55.1751C191.395 55.3212 191.395 55.4674 191.468 55.5405V55.6136C191.542 55.8328 191.761 56.052 191.98 56.1982C192.199 56.3444 192.418 56.4905 192.711 56.5636C193.003 56.6367 193.222 56.6367 193.515 56.6367C193.807 56.6367 194.026 56.5636 194.245 56.4905C194.172 56.4174 194.172 56.3444 194.026 56.3444C193.953 56.3444 193.807 56.2713 193.734 56.2713C193.588 56.2713 193.515 56.1982 193.442 56.1982C193.369 56.1251 193.222 56.052 193.149 55.9059C193.076 55.7597 193.076 55.6866 193.149 55.5405C193.149 55.4674 193.222 55.3212 193.295 55.2482C193.369 55.1751 193.442 55.102 193.442 55.0289C193.515 54.9559 193.515 54.8828 193.515 54.8097C193.295 54.6635 193.076 54.5174 192.857 54.3712C192.638 54.2251 192.345 54.152 192.199 54.0058C191.98 53.8597 191.688 53.6404 191.468 53.4943C191.249 53.3481 191.03 53.2019 190.811 53.0558C190.591 52.9827 190.299 52.9096 190.08 52.8365C189.788 52.8365 189.568 52.8365 189.276 52.9827C189.13 53.0558 188.984 53.1289 188.838 53.275C188.691 53.4212 188.545 53.5673 188.472 53.7135C188.399 53.8597 188.326 54.0789 188.326 54.2251C188.326 54.3712 188.326 54.5905 188.399 54.7366C188.472 54.8828 188.545 55.0289 188.691 55.1751C188.838 55.3212 188.984 55.3943 189.057 55.4674C189.203 55.5405 189.349 55.6136 189.422 55.6866C189.568 55.7597 189.641 55.8328 189.641 55.979C189.715 56.1251 189.715 56.2713 189.641 56.4174C189.568 56.5636 189.495 56.7098 189.349 56.7098L187.522 57.5136H187.449C187.522 57.2213 187.595 56.929 187.522 56.7098C187.449 56.4174 187.376 56.1982 187.303 55.9059C187.23 55.7597 187.084 55.5405 186.864 55.3943C186.645 55.2482 186.426 55.0289 186.207 54.9558C185.987 54.8097 185.695 54.7366 185.403 54.6635C185.11 54.5905 184.891 54.6635 184.745 54.7366V54.8097C184.599 54.6635 184.672 54.6635 184.745 54.7366Z" fill="#EBEBEB"/>
<path d="M179.191 182.553C179.118 182.48 179.118 182.48 179.118 182.407L179.045 182.26C178.826 182.041 178.606 181.895 178.387 181.749C178.168 181.676 177.876 181.603 177.583 181.603C177.291 181.603 177.072 181.603 176.779 181.676C176.487 181.749 176.268 181.822 175.976 181.968L174.149 183.576C173.929 183.795 173.71 183.868 173.418 183.941C173.125 184.014 172.906 184.014 172.614 183.941C172.322 183.868 172.102 183.795 171.883 183.649C171.664 183.503 171.445 183.357 171.298 183.137C170.933 182.772 170.714 182.333 170.568 181.968C170.421 181.53 170.421 181.091 170.568 180.58C170.568 180.506 170.568 180.506 170.641 180.433C170.641 180.36 170.714 180.287 170.714 180.287L171.372 179.703C171.445 179.629 171.518 179.629 171.664 179.629C171.81 179.629 171.956 179.629 171.956 179.703L171.298 180.287C171.152 180.36 171.152 180.506 171.079 180.653C171.079 180.799 171.079 180.945 171.079 181.091C171.079 181.237 171.152 181.383 171.225 181.53C171.298 181.676 171.372 181.749 171.445 181.895C171.664 182.187 171.956 182.333 172.322 182.333C172.687 182.333 172.979 182.26 173.272 182.041C173.564 181.822 173.71 181.456 173.783 181.091C173.856 180.726 173.71 180.36 173.418 180.068C173.199 179.849 173.052 179.703 172.76 179.629C172.541 179.556 172.248 179.483 172.029 179.483C171.81 179.483 171.518 179.556 171.298 179.629C171.079 179.703 170.86 179.849 170.641 179.995C170.275 180.36 169.983 180.726 169.837 181.237C169.691 181.676 169.618 182.187 169.618 182.626C169.618 183.064 169.764 183.576 169.983 184.014C170.202 184.453 170.421 184.891 170.787 185.257C170.86 185.403 171.006 185.476 171.079 185.549C171.225 185.622 171.298 185.768 171.372 185.841C171.518 185.987 171.518 186.134 171.518 186.28C171.518 186.426 171.518 186.645 171.445 186.791L171.372 186.864H171.298L169.325 184.672C169.398 184.526 169.398 184.453 169.398 184.453C169.398 184.38 169.325 184.307 169.325 184.307C169.252 184.233 169.179 184.16 169.106 184.16C169.033 184.16 168.96 184.16 168.814 184.16C168.741 184.087 168.595 183.941 168.448 183.722C168.302 183.503 168.083 183.283 167.864 183.064C167.644 182.845 167.498 182.626 167.279 182.407C167.133 182.187 166.987 182.041 166.914 181.968L166.841 181.895C166.768 181.749 166.694 181.603 166.621 181.456C166.548 181.237 166.621 181.164 166.694 181.091L166.914 180.945C167.425 181.018 167.864 180.945 168.302 180.872C168.741 180.726 169.179 180.506 169.471 180.214C169.764 179.922 170.056 179.629 170.275 179.191C170.495 178.753 170.714 178.387 170.787 177.949C170.86 177.51 170.933 177.072 170.86 176.633C170.787 176.195 170.568 175.829 170.275 175.464C169.983 175.099 169.618 174.879 169.179 174.806C168.814 174.733 168.375 174.66 167.937 174.733C167.498 174.806 167.133 174.952 166.694 175.172C166.329 175.391 165.964 175.61 165.671 175.902C165.16 176.341 164.794 176.852 164.502 177.437C164.21 178.022 164.064 178.679 164.137 179.337C164.137 179.41 164.137 179.483 164.137 179.556C164.137 179.629 164.21 179.703 164.21 179.776L164.283 179.703C164.283 179.045 164.429 178.46 164.721 177.949C164.941 177.437 165.379 176.999 165.891 176.56L165.964 176.487C166.037 176.414 166.183 176.341 166.256 176.268C166.329 176.195 166.475 176.122 166.548 176.049C166.841 175.829 167.133 175.61 167.352 175.391C167.644 175.172 167.937 175.099 168.302 175.099C168.668 175.099 168.96 175.172 169.179 175.172C169.471 175.245 169.691 175.391 169.91 175.683C170.056 175.829 170.129 176.049 170.202 176.195C170.275 176.414 170.275 176.633 170.202 176.779C170.202 176.999 170.129 177.218 169.983 177.364C169.91 177.583 169.764 177.729 169.618 177.876C169.106 178.314 168.521 178.533 167.937 178.606C167.864 178.606 167.791 178.606 167.644 178.606C167.498 178.606 167.352 178.606 167.206 178.606C167.06 178.606 166.914 178.606 166.768 178.606C166.621 178.606 166.548 178.606 166.548 178.606C166.548 178.606 166.475 178.679 166.548 178.753C166.548 178.826 166.548 178.899 166.548 179.045C166.548 179.118 166.548 179.264 166.621 179.337C166.621 179.41 166.621 179.483 166.621 179.483C166.621 179.629 166.621 179.776 166.548 180.068C166.475 180.287 166.475 180.58 166.402 180.872C166.402 181.164 166.329 181.383 166.329 181.603C166.329 181.822 166.329 181.968 166.475 182.114L168.448 184.307C168.521 184.453 168.595 184.526 168.595 184.599C168.595 184.672 168.521 184.745 168.375 184.891C168.229 185.037 168.083 185.037 167.937 185.11C167.791 185.11 167.644 185.11 167.498 184.964L165.891 183.137C165.817 183.064 165.671 182.918 165.525 182.772C165.379 182.626 165.233 182.553 165.087 182.407C164.941 182.333 164.794 182.187 164.575 182.187C164.356 182.187 164.283 182.114 164.137 182.041L163.04 181.968L162.967 182.041C162.967 182.114 162.967 182.26 162.967 182.407C162.967 182.553 162.967 182.699 162.967 182.845C162.967 182.991 162.894 183.137 162.894 183.283C162.894 183.43 162.821 183.503 162.821 183.576C162.821 183.649 162.821 183.722 162.821 183.868C162.821 184.014 162.821 184.087 162.821 184.234C162.821 184.38 162.821 184.453 162.821 184.526C162.821 184.599 162.821 184.672 162.821 184.672L162.894 184.745C162.967 184.672 162.967 184.599 162.967 184.453C162.967 184.307 162.967 184.233 163.04 184.16C163.114 184.087 163.187 184.087 163.333 184.087C163.479 184.087 163.552 184.087 163.698 184.16C163.844 184.233 163.917 184.233 163.99 184.307C164.064 184.38 164.21 184.453 164.21 184.526C164.429 184.745 164.575 184.891 164.794 185.11C165.014 185.257 165.16 185.403 165.306 185.549C165.452 185.622 165.525 185.622 165.598 185.695C165.671 185.768 165.817 185.768 165.891 185.768C165.964 185.768 166.11 185.841 166.256 185.841C166.402 185.841 166.548 185.841 166.768 185.914C166.841 185.914 166.914 185.914 167.06 185.841C167.206 185.768 167.279 185.768 167.352 185.768C167.425 185.768 167.498 185.695 167.571 185.695C167.644 185.695 167.718 185.695 167.718 185.695C167.718 185.695 167.718 185.768 167.644 185.841C167.644 185.987 167.571 186.134 167.571 186.28C167.571 186.426 167.498 186.645 167.498 186.791C167.498 186.937 167.498 187.084 167.498 187.157C167.498 187.449 167.571 187.741 167.644 187.961C167.791 188.253 167.937 188.472 168.083 188.618L168.302 188.838C168.375 188.911 168.375 188.911 168.448 188.984C168.521 189.057 168.521 189.057 168.595 189.13C168.668 189.13 168.814 189.203 169.033 189.349C169.252 189.422 169.545 189.568 169.764 189.641C170.056 189.714 170.275 189.788 170.495 189.861C170.714 189.934 170.787 189.934 170.86 189.934L170.933 189.861C171.079 189.276 171.298 188.618 171.445 188.034C171.591 187.449 171.664 186.864 171.737 186.207L171.81 186.134C171.81 186.134 171.883 186.134 171.956 186.134C172.029 186.134 172.102 186.134 172.175 186.207C172.248 186.207 172.322 186.28 172.468 186.28C173.272 186.426 173.929 186.426 174.441 186.28C174.952 186.134 175.464 185.841 175.902 185.476L176.268 185.11C176.414 184.964 176.56 184.818 176.706 184.599C176.853 184.38 176.926 184.233 177.072 184.014C177.145 183.795 177.291 183.649 177.437 183.43C177.583 183.21 177.656 183.064 177.876 182.918C178.095 182.699 178.314 182.626 178.533 182.626C178.753 182.626 178.972 182.772 179.118 182.918H179.191C179.264 182.918 179.264 182.845 179.264 182.845C179.264 182.772 179.264 182.772 179.191 182.699C179.264 182.699 179.264 182.626 179.191 182.553ZM171.298 187.157C171.225 187.157 171.152 187.157 171.152 187.157C170.933 187.157 170.714 187.157 170.495 187.084C170.275 187.084 169.983 187.011 169.764 187.011C169.545 187.011 169.252 186.864 169.033 186.791C168.814 186.718 168.595 186.572 168.448 186.426C168.302 186.28 168.229 186.06 168.229 185.841C168.229 185.622 168.302 185.403 168.448 185.257L168.595 185.184C168.668 185.11 168.814 185.037 168.96 184.891C169.106 184.818 169.179 184.745 169.252 184.818C169.325 184.891 169.325 184.891 169.471 185.037C169.545 185.11 169.691 185.257 169.764 185.33C169.837 185.403 169.983 185.549 170.056 185.622C170.129 185.695 170.202 185.768 170.202 185.841L171.298 187.084C171.372 187.011 171.372 187.084 171.298 187.157Z" fill="#EBEBEB"/>
<path d="M146.159 195.269C146.086 195.049 145.94 194.83 145.721 194.611C145.501 194.392 145.282 194.172 144.99 194.026C144.697 193.88 144.478 193.734 144.186 193.661C143.894 193.588 143.674 193.515 143.382 193.515C143.309 193.515 143.236 193.661 143.163 193.807C143.017 194.026 142.944 194.172 142.797 194.392C142.651 194.611 142.578 194.83 142.505 195.049C142.432 195.269 142.359 195.342 142.359 195.415C142.286 195.488 142.213 195.634 142.213 195.853C142.14 195.999 142.14 196.146 142.14 196.146V196.219L142.286 196.146C142.359 195.999 142.432 195.853 142.505 195.707C142.578 195.561 142.651 195.415 142.797 195.342C142.871 195.342 143.017 195.342 143.163 195.342C143.309 195.342 143.528 195.415 143.674 195.488C143.821 195.561 144.04 195.634 144.186 195.707C144.332 195.78 144.405 195.853 144.478 195.999L144.551 196.072C144.405 196.365 144.332 196.657 144.186 197.022C144.04 197.388 143.894 197.68 143.821 198.046C143.747 198.411 143.674 198.776 143.674 199.142C143.674 199.507 143.747 199.873 143.894 200.165C143.967 200.311 144.04 200.457 144.186 200.676C144.332 200.896 144.551 201.042 144.697 201.188C144.917 201.334 145.063 201.48 145.282 201.553C145.501 201.626 145.648 201.7 145.794 201.626H145.867C145.94 201.334 146.159 200.969 146.305 200.603C146.524 200.238 146.744 199.873 146.89 199.507C147.036 199.142 147.182 198.776 147.255 198.411C147.328 198.046 147.328 197.68 147.109 197.315L146.159 195.269ZM146.013 199.8C145.867 199.873 145.648 199.873 145.501 199.726C145.355 199.653 145.136 199.507 144.99 199.288C144.844 199.142 144.698 198.923 144.551 198.776C144.405 198.63 144.332 198.484 144.332 198.411C144.259 198.338 144.259 198.192 144.259 197.973C144.259 197.826 144.259 197.607 144.259 197.461C144.259 197.242 144.332 197.096 144.405 196.949C144.478 196.803 144.551 196.73 144.624 196.657C144.697 196.657 144.698 196.657 144.771 196.657C144.917 196.949 145.063 197.169 145.136 197.388C145.209 197.607 145.355 197.826 145.428 198.046L145.648 198.557C145.648 198.63 145.721 198.703 145.794 198.849C145.867 198.996 145.94 199.142 145.94 199.215C145.94 199.288 146.013 199.434 146.013 199.58C146.086 199.653 146.086 199.726 146.013 199.8Z" fill="#EBEBEB"/>
<path d="M119.85 202.503C119.777 202.211 119.704 201.992 119.485 201.7C119.339 201.48 119.12 201.261 118.973 201.042C118.754 200.823 118.535 200.676 118.316 200.53C118.097 200.384 117.804 200.238 117.585 200.092H117.512C117.512 200.092 117.439 200.165 117.439 200.238C117.366 200.311 117.293 200.457 117.22 200.53C117.146 200.676 117.073 200.75 117 200.823C116.927 200.896 116.927 200.969 116.854 201.042C116.781 201.115 116.635 201.261 116.489 201.407C116.343 201.553 116.196 201.7 116.123 201.846C115.977 201.992 115.904 202.138 115.831 202.284C115.758 202.43 115.758 202.577 115.758 202.723H115.831C115.904 202.723 115.977 202.65 116.05 202.577C116.123 202.503 116.123 202.43 116.196 202.357C116.27 202.284 116.27 202.211 116.343 202.138C116.416 202.065 116.416 201.992 116.489 201.992C116.635 201.992 116.781 201.992 116.927 202.065C117.073 202.138 117.293 202.211 117.439 202.357C117.585 202.503 117.731 202.577 117.877 202.723C118.023 202.869 118.097 203.015 118.17 203.088C118.243 203.38 118.316 203.673 118.389 203.965C118.462 204.257 118.535 204.623 118.608 204.842C118.681 205.134 118.754 205.354 118.827 205.573C118.9 205.792 118.9 205.938 118.9 206.011C118.973 206.157 118.973 206.377 118.973 206.523C118.973 206.669 118.973 206.742 118.9 206.815C118.9 206.815 118.827 206.815 118.754 206.815C118.681 206.815 118.608 206.742 118.535 206.742C118.462 206.742 118.389 206.669 118.243 206.669C118.17 206.669 118.023 206.669 117.95 206.669C117.731 206.742 117.512 206.815 117.366 206.961C117.22 207.107 117.073 207.254 117 207.473C116.927 207.692 116.854 207.911 116.781 208.131C116.781 208.35 116.781 208.569 116.781 208.788C116.781 208.788 116.781 208.861 116.781 208.934C116.781 209.008 116.854 209.008 116.854 209.008V208.934C116.927 208.861 116.927 208.788 116.927 208.788C116.927 208.715 116.927 208.715 116.927 208.642C116.927 208.569 116.927 208.569 117 208.496C117.073 208.423 117.073 208.423 117.22 208.423C117.366 208.423 117.439 208.423 117.585 208.423C117.658 208.496 117.731 208.496 117.804 208.569C117.877 208.642 117.95 208.715 117.95 208.715C118.023 208.788 118.023 208.788 118.097 208.788H118.17C118.243 208.715 118.243 208.642 118.316 208.569C118.389 208.423 118.462 208.35 118.608 208.204C118.681 208.057 118.827 207.984 118.9 207.838C118.973 207.692 119.047 207.619 119.047 207.619C119.193 207.473 119.339 207.254 119.485 207.107C119.631 206.888 119.85 206.742 119.924 206.523C120.07 206.304 120.143 206.084 120.216 205.865C120.289 205.646 120.289 205.427 120.216 205.134L119.85 202.503ZM118.097 207.546C118.097 207.546 118.023 207.546 117.95 207.4H118.023C118.023 207.4 118.097 207.4 118.097 207.473V207.546Z" fill="#EBEBEB"/>
<path d="M91.9341 199.142C91.7879 198.996 91.6418 198.849 91.5687 198.703C91.4956 198.557 91.4225 198.411 91.3494 198.265C91.2764 198.119 91.2033 197.972 91.1302 197.899C91.0571 197.826 90.984 197.753 90.911 197.753H90.8379C90.8379 197.753 90.6917 197.826 90.4725 197.899C90.2532 198.046 90.034 198.192 89.8148 198.338C89.5955 198.484 89.3763 198.63 89.1571 198.776C88.9378 198.923 88.8647 198.996 88.7917 199.069V199.142L88.8647 199.215H88.9378C88.9378 199.215 89.0109 199.215 89.1571 199.142C89.2301 199.069 89.3763 199.069 89.4494 199.069C89.5955 199.069 89.7417 199.215 89.8148 199.434C89.8878 199.653 89.9609 199.873 89.9609 200.019L89.1571 204.696C89.1571 204.769 89.084 204.842 88.9378 204.842C88.7916 204.842 88.7186 204.842 88.5724 204.842C88.4993 204.842 88.3532 204.769 88.2801 204.769L88.207 204.842C88.207 204.915 88.1339 204.988 88.1339 204.988C88.0609 205.207 88.1339 205.354 88.2801 205.427C88.4263 205.5 88.5724 205.5 88.7186 205.573C88.8647 205.573 88.9378 205.646 88.9378 205.719C89.0109 205.792 89.0109 205.865 89.0109 206.011C89.0109 206.084 89.0109 206.23 88.9378 206.377C88.9378 206.523 88.8647 206.596 88.8647 206.669C88.7917 206.961 88.7186 207.254 88.7186 207.546C88.6455 207.838 88.4993 208.057 88.3532 208.35C88.2801 208.423 88.207 208.496 88.0609 208.569C87.9147 208.642 87.9147 208.715 87.8416 208.861C87.9878 208.861 88.1339 208.861 88.207 208.861C88.3532 208.861 88.4993 208.788 88.5724 208.715C88.9378 208.569 89.1571 208.423 89.3763 208.277C89.5955 208.131 89.8148 207.984 89.9609 207.765C90.1071 207.546 90.2532 207.4 90.3994 207.107C90.5456 206.888 90.6186 206.596 90.7648 206.304C90.7648 206.23 90.7648 206.23 90.8379 206.157C90.8379 206.084 90.911 206.084 90.911 206.084L91.4956 206.157C91.5687 206.157 91.5687 206.084 91.5687 206.011C91.5687 205.865 91.6418 205.792 91.6418 205.792V205.573C91.6418 205.5 91.5687 205.427 91.4956 205.427C91.4225 205.427 91.3494 205.354 91.2764 205.354C91.2033 205.354 91.1302 205.28 91.0571 205.28C90.984 205.28 90.984 205.207 90.984 205.207C90.984 205.134 90.984 205.134 90.984 204.988C90.984 204.915 90.984 204.769 90.984 204.696C90.984 204.623 90.984 204.477 90.984 204.403C90.984 204.33 90.984 204.257 90.984 204.184L91.6418 200.311C91.7148 200.238 91.7148 200.238 91.7148 200.165C91.7148 200.092 91.7879 200.019 91.7879 199.946C91.7879 199.799 91.861 199.726 91.9341 199.653C92.0072 199.58 92.0802 199.507 92.1533 199.434C92.2264 199.361 92.2995 199.288 92.3726 199.215C92.4456 199.142 92.5187 199.069 92.5187 198.923H92.3726L91.9341 199.142Z" fill="#EBEBEB"/>
<path d="M67.014 192.272C66.9409 192.126 66.8678 191.907 66.7947 191.761C66.7217 191.615 66.6486 191.468 66.6486 191.322C66.5755 191.176 66.5755 191.176 66.5024 191.103C66.5024 191.103 66.4293 191.103 66.2832 191.176C66.137 191.249 66.0639 191.249 65.9909 191.322C65.8447 191.395 65.7716 191.395 65.6255 191.468C65.5524 191.542 65.4793 191.542 65.4062 191.468L63.8716 191.615C63.6523 191.615 63.4331 191.761 63.1408 191.907C62.8484 192.053 62.6292 192.272 62.5561 192.492L61.3868 194.83C61.2407 195.122 61.1676 195.415 61.1676 195.707C61.1676 195.999 61.2407 196.292 61.3138 196.584C61.3868 196.876 61.533 197.169 61.6792 197.461C61.8253 197.753 61.9715 197.972 62.0446 198.265H62.1176C62.1176 198.265 62.1907 198.265 62.41 198.192C62.6292 198.192 62.8484 198.119 63.0677 198.119C63.2869 198.119 63.5792 198.046 63.7985 198.046C64.0177 198.046 64.1639 197.973 64.237 197.973C64.7485 197.899 65.187 197.753 65.4793 197.461C65.8447 197.169 66.137 196.803 66.3563 196.365C66.5024 196.072 66.6486 195.78 66.7947 195.488C66.9409 195.195 67.0871 194.903 67.2332 194.538C67.3063 194.245 67.3794 193.953 67.3794 193.661C67.4525 193.368 67.3794 193.076 67.2332 192.784C67.1601 192.565 67.0871 192.418 67.014 192.272ZM62.5561 197.242C62.5561 197.242 62.483 197.242 62.5561 197.242C62.483 197.242 62.483 197.242 62.5561 197.242C62.5561 197.169 62.483 197.169 62.5561 197.242C62.5561 197.242 62.5561 197.169 62.5561 197.242ZM65.2601 194.319C65.2601 194.392 65.187 194.465 65.1139 194.684C65.0408 194.83 64.9678 195.049 64.8947 195.195C64.8216 195.342 64.7485 195.561 64.6024 195.707C64.4562 195.853 64.4562 195.999 64.4562 196.072L64.31 196.365C64.31 196.438 64.237 196.511 64.1639 196.584C64.0908 196.657 64.0177 196.803 64.0177 196.876C63.9446 197.022 63.8716 197.096 63.8716 197.169C63.7985 197.242 63.7985 197.315 63.7254 197.388H63.5792C63.5062 197.388 63.4331 197.242 63.2869 197.096C63.2138 196.949 63.1408 196.73 63.0677 196.511C62.9946 196.292 62.9946 196.072 62.9946 195.926C62.9946 195.707 62.9946 195.561 62.9946 195.561C62.9946 195.561 63.0677 195.415 63.0677 195.342C63.1408 195.195 63.1408 195.122 63.1408 195.122L64.6024 192.199L64.6754 192.126H64.7485C64.8947 192.199 64.9677 192.345 65.0408 192.492C65.1139 192.711 65.187 192.857 65.187 193.076C65.187 193.295 65.2601 193.515 65.187 193.734C65.3331 193.953 65.3331 194.172 65.2601 194.319Z" fill="#EBEBEB"/>
<path d="M44.8708 177.656C44.8708 177.291 44.9439 176.999 44.9439 176.779C44.9439 176.56 44.9439 176.268 44.9439 175.902C44.9439 175.829 44.9439 175.756 44.9439 175.683C44.9439 175.537 44.9439 175.537 44.8708 175.464L44.7978 175.391L41.8746 175.537C41.8015 175.61 41.7284 175.61 41.7284 175.61H41.6553C41.7284 175.683 41.8015 175.683 41.8746 175.683C41.9477 175.683 42.0938 175.683 42.1669 175.683C42.24 175.683 42.3861 175.683 42.4592 175.683C42.5323 175.683 42.6054 175.683 42.6054 175.683L42.8977 175.902C42.8977 175.902 42.9708 175.976 42.9708 176.122C42.9708 176.268 42.9708 176.341 42.9708 176.487C42.9708 176.633 42.9708 176.706 42.8977 176.852C42.8977 176.926 42.8246 176.999 42.8246 177.072L40.413 179.776C40.413 179.776 40.413 179.776 40.3399 179.776L40.2668 179.703C40.1937 179.629 40.1207 179.556 40.0476 179.483C39.9745 179.41 39.9014 179.337 39.8284 179.264C39.6091 179.118 39.463 178.972 39.2437 178.972C39.0245 178.899 38.8052 178.899 38.586 178.972C38.3668 179.045 38.1475 179.118 37.9283 179.264C37.709 179.41 37.5629 179.556 37.3436 179.703C37.3436 179.703 37.3436 179.776 37.2706 179.776C37.2706 179.849 37.2706 179.849 37.2706 179.849C37.4898 179.776 37.636 179.703 37.7821 179.703C37.9283 179.703 38.0744 179.776 38.2206 179.922C38.2937 179.995 38.3668 180.141 38.3668 180.214C38.3668 180.36 38.3668 180.433 38.2937 180.58C38.3668 180.653 38.4398 180.653 38.586 180.58C38.7322 180.58 38.8783 180.506 39.0245 180.433C39.1706 180.36 39.3168 180.36 39.463 180.287C39.6091 180.287 39.6822 180.287 39.7553 180.287C39.8284 180.36 39.8284 180.433 39.7553 180.58C39.7553 180.726 39.6822 180.872 39.6822 181.091C39.6822 181.237 39.6091 181.456 39.6091 181.603C39.6091 181.749 39.6822 181.895 39.7553 181.968C39.7553 181.968 39.8284 181.968 39.9014 181.968C39.9745 181.968 40.1207 181.968 40.1937 181.968C40.3399 181.968 40.413 181.968 40.4861 181.968C40.5591 181.968 40.6322 181.968 40.6322 181.968C40.7784 181.968 40.8515 181.968 40.9976 181.968C41.1438 181.968 41.2899 182.041 41.4361 182.041C41.5823 182.041 41.7284 182.041 41.8746 181.968C42.0207 181.968 42.0938 181.895 42.1669 181.749C42.0938 181.676 41.9477 181.676 41.8746 181.676C41.7284 181.676 41.6553 181.676 41.5823 181.603C41.5092 181.53 41.5092 181.456 41.5092 181.383C41.5092 181.31 41.5092 181.237 41.5092 181.091C41.5092 181.018 41.5823 180.945 41.6553 180.872C41.7284 180.799 41.7284 180.726 41.8015 180.653L44.2131 177.876C44.2862 177.802 44.4324 177.729 44.5785 177.729C44.7247 177.729 44.8708 177.656 45.017 177.656C45.1632 177.656 45.3093 177.656 45.4555 177.656C45.6016 177.656 45.6747 177.583 45.7478 177.51L45.6747 177.437L44.8708 177.656Z" fill="#EBEBEB"/>
<path d="M205.134 117.22C205.061 117.147 204.988 117.073 204.915 117C204.842 116.927 204.769 116.854 204.696 116.854C204.623 116.781 204.55 116.781 204.55 116.708C204.403 116.489 204.33 116.123 204.184 115.612C204.038 115.1 203.965 114.808 203.746 114.808L201.7 127.889C201.773 128.182 201.919 128.401 202.065 128.547C202.211 128.693 202.357 128.912 202.503 129.205C202.576 129.351 202.65 129.643 202.796 130.082C202.869 130.52 203.015 130.739 203.234 130.739L205.207 117.731C205.207 117.439 205.207 117.293 205.134 117.22Z" fill="#EBEBEB"/>
<path d="M11.3274 118.974C10.3043 118.974 9.42731 119.85 9.42731 120.874C9.42731 121.897 10.3043 122.774 11.3274 122.774C12.3505 122.774 13.2274 121.897 13.2274 120.874C13.2274 119.85 12.3505 118.974 11.3274 118.974Z" fill="#EBEBEB"/>
<path d="M94.565 142.359C92.1534 140.167 91.6418 136.951 91.5687 135.928V139.874C91.5687 139.874 96.9766 144.478 94.565 142.359Z" fill="#EBEBEB"/>
</g>
<defs>
<clipPath id="clip0">
<rect width="215" height="215" fill="white"/>
</clipPath>
</defs>
</svg>