<svg width="29" height="28" viewBox="0 0 29 28" fill="none" xmlns="http://www.w3.org/2000/svg">
<g clip-path="url(#clip0)">
<path d="M27.8272 7.94548C27.8272 7.94548 27.5581 6.04716 26.7334 5.20959C25.6855 4.11303 24.5109 4.10752 23.9727 4.04231C20.1164 3.76404 14.3278 3.76404 14.3278 3.76404C14.3278 3.76404 8.53821 3.76404 4.68281 4.04323C4.14463 4.10752 2.97001 4.11303 1.92212 5.21051C1.09557 6.04716 0.827397 7.94548 0.827397 7.94548C0.827397 7.94548 0.55188 9.80063 0.55188 12.0296V14.7857C0.55188 17.0146 0.827397 18.9542 0.827397 18.9542C0.827397 18.9542 1.09557 20.8516 1.92212 21.6883C2.97001 22.7858 4.34667 22.7518 4.96016 22.8666C7.1643 23.0778 14.3278 23.0512 14.3278 23.0512C14.3278 23.0512 20.1164 23.1338 23.9727 22.8556C24.5109 22.7913 25.6855 22.7858 26.7334 21.6883C27.5581 20.8526 27.8272 18.9542 27.8272 18.9542C27.8272 18.9542 28.1036 17.0155 28.1036 14.7866V12.0305C28.1036 9.80063 27.8272 7.94548 27.8272 7.94548ZM10.6542 17.0872V9.74002L18.0013 13.4136L10.6542 17.0872Z" fill="#E5E5E5"/>
</g>
<defs>
<clipPath id="clip0">
<rect x="0.55188" y="0.103355" width="27.5518" height="27.5518" fill="white"/>
</clipPath>
</defs>
</svg>